<?xml version="1.0" standalone="no"?>
<!DOCTYPE svg PUBLIC "-//W3C//DTD SVG 20010904//EN"
 "http://www.w3.org/TR/2001/REC-SVG-20010904/DTD/svg10.dtd">
<svg version="1.0" xmlns="http://www.w3.org/2000/svg"
 width="1080.000000pt" height="1080.000000pt" viewBox="0 0 1080.000000 1080.000000"
 preserveAspectRatio="xMidYMid meet">

<g transform="translate(0.000000,1080.000000) scale(0.100000,-0.100000)"
fill="#000000" stroke="none">
<path d="M4585 8280 c-8 -12 20 -60 35 -60 17 0 11 36 -9 54 -13 12 -21 14
-26 6z"/>
<path d="M4764 8277 c-3 -10 -1 -30 5 -45 10 -21 14 -23 22 -11 12 20 11 32
-5 55 -14 18 -15 18 -22 1z"/>
<path d="M4830 8236 c-14 -44 -1 -92 34 -125 26 -25 30 -22 41 26 7 35 -13 89
-45 118 -17 15 -19 14 -30 -19z"/>
<path d="M4504 8242 c-34 -23 -60 -102 -34 -102 23 0 60 50 60 80 0 30 -6 36
-26 22z"/>
<path d="M4702 8227 c-28 -29 -38 -90 -23 -131 10 -24 14 -26 27 -15 40 33 53
91 31 142 l-12 29 -23 -25z"/>
<path d="M4250 8195 c-13 -39 -3 -84 27 -117 23 -25 30 -23 43 16 13 39 -3 88
-38 119 -20 18 -20 18 -32 -18z"/>
<path d="M4410 8219 c0 -9 7 -22 15 -29 19 -16 19 0 0 26 -12 16 -14 16 -15 3z"/>
<path d="M4956 8215 c-17 -18 -22 -65 -7 -65 14 0 52 51 48 64 -6 17 -24 18
-41 1z"/>
<path d="M5110 8176 c0 -30 33 -72 48 -62 18 11 15 30 -9 60 -25 32 -39 33
-39 2z"/>
<path d="M4160 8171 c0 -23 35 -56 44 -42 9 14 -9 47 -29 55 -10 3 -15 -1 -15
-13z"/>
<path d="M4355 8170 c-7 -23 2 -60 15 -60 13 0 22 37 15 60 -3 11 -10 20 -15
20 -5 0 -12 -9 -15 -20z"/>
<path d="M4567 8172 c-19 -21 -22 -42 -7 -42 13 0 50 37 50 50 0 16 -26 11
-43 -8z"/>
<path d="M5045 8130 c-21 -23 -24 -85 -5 -120 l13 -24 23 28 c28 31 30 65 9
106 -18 36 -17 35 -40 10z"/>
<path d="M5219 8134 c-15 -18 -16 -81 -1 -96 23 -23 52 55 36 96 -8 20 -18 20
-35 0z"/>
<path d="M4066 8114 c-15 -39 -6 -91 21 -118 32 -32 43 -22 43 40 0 27 -7 51
-21 68 -24 30 -34 33 -43 10z"/>
<path d="M4387 8076 c-39 -38 -56 -92 -39 -122 9 -16 13 -15 45 17 38 38 56
95 39 124 -8 15 -13 13 -45 -19z"/>
<path d="M4926 8088 c-18 -25 -21 -48 -7 -48 16 0 61 41 61 56 0 22 -37 17
-54 -8z"/>
<path d="M4810 8088 c0 -18 28 -58 41 -58 18 0 5 42 -18 58 -19 12 -23 12 -23
0z"/>
<path d="M4180 8044 c0 -39 5 -51 36 -82 29 -29 37 -33 45 -21 22 35 -1 103
-45 133 -14 9 -28 16 -31 16 -3 0 -5 -21 -5 -46z"/>
<path d="M4514 8072 c-26 -21 -44 -54 -44 -81 0 -43 56 -5 66 44 8 47 3 57
-22 37z"/>
<path d="M4590 8075 c0 -18 43 -65 60 -65 20 0 10 39 -16 59 -32 25 -44 26
-44 6z"/>
<path d="M5290 8065 c-6 -8 -10 -22 -8 -32 3 -16 5 -16 26 5 12 12 22 27 22
32 0 15 -26 12 -40 -5z"/>
<path d="M4746 8037 c-18 -19 -26 -37 -26 -62 l0 -36 29 20 c31 23 50 76 33
93 -7 7 -19 2 -36 -15z"/>
<path d="M5150 8041 c0 -25 10 -51 20 -51 14 0 20 31 10 51 -14 24 -30 25 -30
0z"/>
<path d="M3982 8033 c4 -21 51 -48 57 -32 4 14 -29 49 -46 49 -8 0 -13 -7 -11
-17z"/>
<path d="M4940 8010 c-25 -25 -26 -40 -1 -40 20 0 71 36 71 51 0 17 -50 9 -70
-11z"/>
<path d="M5339 7989 c-21 -41 13 -129 38 -97 19 25 23 52 12 85 -12 38 -33 43
-50 12z"/>
<path d="M3961 7983 c-13 -26 -15 -60 -2 -67 14 -9 31 42 22 66 l-8 22 -12
-21z"/>
<path d="M4803 7983 c-7 -18 15 -64 35 -71 15 -5 16 41 2 69 -13 23 -28 25
-37 2z"/>
<path d="M5239 7981 c-21 -17 -22 -20 -7 -26 19 -8 70 14 76 33 6 19 -43 14
-69 -7z"/>
<path d="M4610 7961 c11 -21 47 -37 58 -26 9 9 -35 45 -54 45 -11 0 -12 -4 -4
-19z"/>
<path d="M5104 7966 c-10 -26 0 -71 16 -71 17 0 24 27 16 61 -7 27 -24 32 -32
10z"/>
<path d="M5444 7967 c-7 -20 -2 -47 11 -50 14 -3 19 43 6 56 -7 7 -12 6 -17
-6z"/>
<path d="M3852 7945 c-19 -41 -14 -81 13 -112 21 -24 26 -26 35 -13 21 32 23
82 5 117 -22 40 -38 42 -53 8z"/>
<path d="M4514 7945 c-9 -13 -14 -29 -12 -35 5 -15 58 27 58 46 0 23 -28 16
-46 -11z"/>
<path d="M4942 7934 c-29 -20 -28 -44 1 -44 22 0 44 17 61 48 10 18 -35 16
-62 -4z"/>
<path d="M4176 7931 c-8 -12 3 -41 15 -41 5 0 9 11 9 25 0 25 -14 34 -24 16z"/>
<path d="M4012 7921 c-28 -17 45 -46 82 -32 18 7 18 8 -5 24 -25 18 -56 22
-77 8z"/>
<path d="M5227 7919 c-25 -15 -12 -29 27 -29 33 0 62 20 49 33 -10 10 -56 8
-76 -4z"/>
<path d="M4400 7911 c0 -13 40 -61 51 -61 18 0 9 39 -13 54 -25 18 -38 20 -38
7z"/>
<path d="M4544 7876 c-59 -59 -35 -93 25 -37 30 28 42 71 20 71 -6 0 -26 -15
-45 -34z"/>
<path d="M4777 7903 c-14 -14 -6 -45 19 -70 30 -30 50 -20 36 18 -12 29 -46
62 -55 52z"/>
<path d="M5039 7886 c-9 -18 -7 -31 6 -57 17 -31 18 -32 31 -14 18 24 17 29
-1 65 -19 36 -22 37 -36 6z"/>
<path d="M5510 7881 c-10 -20 -4 -51 11 -51 11 0 39 41 39 57 0 20 -38 15 -50
-6z"/>
<path d="M4227 7883 c-10 -10 -8 -43 2 -43 9 0 21 24 21 41 0 11 -14 12 -23 2z"/>
<path d="M4649 7870 c24 -21 41 -26 41 -12 0 15 -24 32 -44 32 -20 -1 -20 -1
3 -20z"/>
<path d="M3740 7866 c0 -20 35 -56 55 -56 18 0 20 34 3 48 -7 5 -23 13 -35 16
-17 6 -23 3 -23 -8z"/>
<path d="M3940 7861 c-5 -11 -10 -30 -10 -42 0 -21 1 -22 20 -4 20 18 28 65
10 65 -5 0 -14 -9 -20 -19z"/>
<path d="M5415 7840 c-19 -37 -19 -51 1 -98 l15 -37 20 24 c21 25 25 75 9 115
-13 34 -26 33 -45 -4z"/>
<path d="M4953 7850 c-20 -8 -43 -38 -43 -55 0 -14 56 7 73 27 30 36 18 47
-30 28z"/>
<path d="M5190 7845 c-10 -12 -9 -16 5 -21 21 -9 67 6 73 24 6 18 -63 16 -78
-3z"/>
<path d="M5327 7842 c-20 -22 -22 -52 -4 -52 19 0 47 33 47 53 0 22 -23 22
-43 -1z"/>
<path d="M4061 7841 c-24 -16 32 -44 71 -36 l32 7 -23 19 c-25 20 -57 24 -80
10z"/>
<path d="M4266 7835 c-6 -18 2 -45 15 -45 5 0 9 14 9 30 0 32 -14 40 -24 15z"/>
<path d="M4380 7817 c0 -21 36 -67 53 -67 18 0 5 60 -15 74 -30 22 -38 20 -38
-7z"/>
<path d="M4608 7826 c-19 -19 -23 -42 -9 -50 14 -9 33 21 29 45 -3 22 -4 22
-20 5z"/>
<path d="M4674 7815 c10 -8 23 -12 29 -8 11 7 -12 23 -33 23 -12 -1 -11 -4 4
-15z"/>
<path d="M3977 7796 c-11 -28 -8 -68 5 -64 19 7 28 45 14 63 -12 17 -13 17
-19 1z"/>
<path d="M5007 7804 c-12 -12 -8 -51 6 -63 16 -13 27 -5 27 19 0 21 -24 53
-33 44z"/>
<path d="M5564 7800 c-26 -10 -54 -48 -54 -72 0 -27 46 -23 75 7 26 25 34 75
13 74 -7 0 -23 -4 -34 -9z"/>
<path d="M3755 7760 c-28 -53 -12 -146 21 -119 25 21 38 84 24 118 -16 39 -25
39 -45 1z"/>
<path d="M5147 7779 c-9 -6 -15 -14 -12 -20 8 -12 66 -11 85 1 33 22 -36 40
-73 19z"/>
<path d="M3656 7764 c-10 -27 -7 -52 10 -68 21 -22 34 -11 34 28 0 46 -31 74
-44 40z"/>
<path d="M4152 7773 c-21 -8 -2 -23 29 -23 17 0 28 4 25 9 -7 11 -37 19 -54
14z"/>
<path d="M4525 7755 c-27 -26 -33 -55 -12 -55 19 0 57 43 57 63 0 24 -17 21
-45 -8z"/>
<path d="M4640 7750 c-27 -27 -27 -55 0 -40 18 9 40 40 40 54 0 13 -21 5 -40
-14z"/>
<path d="M5290 7763 c-23 -9 -60 -45 -60 -60 0 -23 66 -16 96 10 43 37 19 70
-36 50z"/>
<path d="M5642 7758 c-15 -15 -16 -48 -2 -48 6 0 19 9 30 20 11 11 20 25 20
30 0 14 -33 13 -48 -2z"/>
<path d="M4930 7753 c-20 -7 -50 -34 -50 -45 0 -12 38 -10 63 3 51 27 40 61
-13 42z"/>
<path d="M4021 7721 c-10 -22 -10 -34 -1 -51 17 -32 42 -7 38 38 -4 45 -22 51
-37 13z"/>
<path d="M3840 7725 c13 -16 60 -21 60 -6 0 11 -25 21 -52 21 -17 0 -18 -3 -8
-15z"/>
<path d="M4710 7725 c13 -16 60 -21 60 -6 0 11 -25 21 -52 21 -17 0 -18 -3 -8
-15z"/>
<path d="M4210 7705 c7 -8 24 -15 37 -15 22 0 24 2 13 15 -7 8 -24 15 -37 15
-22 0 -24 -2 -13 -15z"/>
<path d="M4345 7701 c-3 -5 -1 -12 5 -16 5 -3 10 1 10 9 0 18 -6 21 -15 7z"/>
<path d="M5100 7700 c-35 -23 42 -41 82 -19 17 9 18 13 7 20 -19 12 -70 11
-89 -1z"/>
<path d="M4102 7688 c-14 -14 -16 -74 -3 -83 13 -7 31 27 31 59 0 29 -12 40
-28 24z"/>
<path d="M4655 7665 c-39 -38 -31 -60 12 -30 22 15 38 55 22 55 -6 0 -21 -11
-34 -25z"/>
<path d="M5377 7673 c-4 -3 -7 -19 -7 -35 0 -35 23 -34 28 1 4 25 -10 46 -21
34z"/>
<path d="M5602 7660 c-12 -12 -22 -32 -22 -45 0 -20 5 -25 25 -25 14 0 34 9
45 20 11 11 20 31 20 45 0 32 -36 34 -68 5z"/>
<path d="M3570 7645 c0 -30 32 -65 60 -65 26 0 28 50 2 73 -29 27 -62 22 -62
-8z"/>
<path d="M3850 7656 c0 -16 21 -26 55 -26 32 0 40 16 16 29 -28 16 -71 14 -71
-3z"/>
<path d="M4361 7654 c0 -11 3 -14 6 -6 3 7 2 16 -1 19 -3 4 -6 -2 -5 -13z"/>
<path d="M4875 7651 c-7 -23 11 -64 26 -56 14 9 11 51 -5 64 -11 10 -16 8 -21
-8z"/>
<path d="M5447 7639 c-27 -28 -29 -32 -13 -41 25 -14 70 -1 97 28 20 21 21 27
9 34 -28 18 -61 10 -93 -21z"/>
<path d="M4255 7650 c3 -5 20 -10 36 -10 18 0 28 4 24 10 -3 6 -20 10 -36 10
-18 0 -28 -4 -24 -10z"/>
<path d="M4514 7636 c-4 -17 0 -35 12 -53 l17 -27 10 22 c12 26 0 73 -20 79
-7 3 -15 -7 -19 -21z"/>
<path d="M5230 7645 c-11 -13 -8 -15 18 -15 16 0 35 7 42 15 11 13 8 15 -18
15 -16 0 -35 -7 -42 -15z"/>
<path d="M5709 7641 c-20 -18 -22 -22 -9 -30 17 -12 55 9 55 29 0 22 -21 22
-46 1z"/>
<path d="M4172 7638 c-17 -17 -15 -63 4 -79 13 -10 17 -10 25 2 23 37 -2 104
-29 77z"/>
<path d="M4763 7473 c-60 -167 -105 -321 -118 -398 -6 -38 -8 -39 -22 -20 -8
11 -39 67 -70 124 l-56 104 31 57 c41 74 41 92 1 22 -18 -30 -35 -50 -40 -45
-9 9 -71 169 -90 231 -7 23 -14 40 -17 38 -2 -3 10 -48 28 -101 18 -53 30 -98
28 -100 -2 -2 -68 27 -146 65 -78 38 -142 67 -142 65 0 -5 151 -91 223 -126
l67 -33 37 -96 c20 -52 51 -128 70 -169 18 -40 33 -75 33 -77 0 -7 -145 38
-182 57 -22 11 -42 18 -44 16 -5 -5 89 -50 177 -87 l57 -23 19 -101 c10 -56
15 -102 12 -104 -4 -2 -47 18 -96 44 -248 132 -455 264 -561 357 -39 34 -34
27 16 -21 43 -42 125 -103 202 -152 72 -45 130 -84 130 -87 0 -3 -26 -3 -57 0
-50 5 -44 2 47 -22 62 -16 123 -39 149 -56 l43 -29 -63 -16 c-35 -9 -74 -21
-86 -28 -12 -7 -33 -12 -47 -12 -15 0 -26 -6 -28 -17 -2 -9 -19 -22 -38 -29
-24 -8 -29 -13 -15 -14 18 -1 17 -4 -10 -26 l-30 -26 42 21 c53 26 53 26 53
-4 0 -22 -4 -25 -35 -25 -27 0 -35 -4 -35 -17 0 -10 -7 -27 -15 -37 -26 -35
-10 -85 18 -57 6 6 23 11 38 11 l26 0 6 -139 c6 -153 15 -184 69 -223 39 -27
151 -38 198 -18 35 14 35 17 15 67 -15 37 -16 38 -67 38 -71 0 -79 16 -76 160
l3 110 63 3 62 3 0 49 0 50 -65 0 -66 0 3 58 3 57 55 0 c68 0 110 -28 142 -94
17 -36 23 -69 26 -157 7 -172 -29 -334 -89 -407 -26 -31 -34 -34 -101 -40 -43
-4 -97 -16 -133 -31 -33 -14 -71 -26 -85 -26 -14 -1 -34 -6 -45 -11 -15 -7
-13 -8 12 -3 68 12 44 -41 -32 -71 l-40 -15 35 6 c38 7 90 34 90 47 0 40 147
92 241 85 l44 -3 -45 -17 c-25 -9 -58 -20 -75 -24 -27 -7 -28 -8 -7 -12 12 -2
46 1 74 8 76 16 80 -3 6 -29 -35 -12 -85 -33 -113 -46 -46 -21 -136 -36 -225
-37 -20 0 -26 -2 -15 -5 27 -7 44 -23 23 -23 -9 0 -26 -9 -39 -20 -20 -16 -14
-15 30 6 59 28 121 42 121 28 -1 -16 -58 -72 -91 -90 -18 -9 -64 -20 -103 -24
-39 -4 -58 -8 -43 -9 18 0 26 -5 21 -12 -4 -8 0 -7 15 1 12 6 30 9 39 6 23 -8
45 -67 36 -100 -3 -14 -2 -31 2 -38 6 -9 10 -4 14 17 3 20 13 31 30 36 24 7
24 7 2 8 -18 1 -42 32 -42 55 0 2 13 6 30 9 19 4 35 17 45 37 13 26 22 30 58
32 l42 1 -43 6 -44 6 24 21 c35 32 58 37 79 18 23 -21 24 -34 2 -34 -9 0 -14
-3 -10 -6 11 -11 59 6 54 19 -18 44 -21 42 67 42 96 0 117 -10 93 -45 -9 -12
-13 -29 -10 -38 5 -13 0 -14 -30 -9 -30 5 -43 1 -65 -18 -16 -13 -41 -27 -56
-31 -15 -3 -33 -19 -41 -35 -12 -23 -24 -29 -62 -34 -73 -10 -75 -15 -5 -12
34 2 62 0 62 -5 0 -5 -25 -24 -56 -44 -62 -40 -82 -71 -65 -100 9 -17 10 -15
11 13 0 17 7 39 16 48 19 19 96 60 107 57 4 -1 7 4 7 12 0 8 10 22 22 30 12 9
18 16 12 16 -5 0 -15 -5 -22 -12 -15 -15 -16 -3 -2 23 8 13 21 19 46 19 19 0
33 -4 30 -9 -3 -5 3 -11 14 -14 23 -6 25 -32 5 -67 -19 -34 -18 -60 4 -111 11
-24 17 -47 14 -53 -3 -5 -1 -6 5 -2 17 10 15 30 -10 81 l-22 46 23 43 c13 24
21 48 17 54 -7 12 75 52 108 52 12 0 34 -13 49 -28 l27 -28 -30 -22 c-16 -13
-30 -28 -29 -35 0 -9 2 -9 6 1 3 7 18 19 34 28 32 16 60 8 78 -24 6 -9 11 -12
11 -6 0 6 -9 19 -20 29 -20 18 -20 18 1 29 38 19 46 43 27 76 -17 29 -17 30 5
31 16 1 18 2 5 6 -13 3 -16 11 -11 36 3 18 6 34 6 37 1 3 -3 16 -7 29 -10 28
13 51 49 51 23 0 95 -79 95 -104 0 -23 -58 -61 -88 -59 -27 3 -27 3 -4 -7 66
-28 77 -94 22 -140 -16 -14 -36 -44 -45 -65 -8 -23 -10 -32 -2 -21 6 10 22 30
33 45 l22 25 38 -26 c22 -14 55 -29 74 -33 19 -4 46 -14 60 -22 l25 -14 -23
20 c-13 12 -43 26 -65 32 -23 7 -50 20 -61 30 -17 15 -17 21 -5 68 10 39 10
56 1 76 -11 24 -9 29 19 54 22 20 29 35 25 48 -5 16 -1 18 34 15 50 -5 65 -28
56 -88 -6 -46 3 -60 42 -66 l22 -3 -25 -29 c-26 -30 -29 -38 -19 -49 4 -3 20
12 35 33 16 22 37 40 47 40 10 0 33 -15 50 -33 32 -33 32 -34 26 -104 -4 -42
-3 -77 4 -89 8 -14 10 -4 9 42 0 32 2 76 3 97 4 35 6 37 39 37 20 -1 53 -7 74
-14 20 -8 37 -12 37 -9 0 10 -73 33 -108 33 -25 0 -49 8 -66 21 -14 11 -41 25
-59 30 -39 11 -75 62 -57 83 15 19 73 28 104 16 14 -5 31 -20 37 -34 6 -13 22
-29 36 -35 38 -17 51 -12 18 7 l-30 17 45 6 c34 4 37 6 14 7 -16 1 -45 13 -64
27 -19 14 -44 25 -57 25 -13 0 -40 9 -60 20 -21 11 -48 20 -61 20 -53 0 -182
86 -182 121 0 26 18 24 64 -7 24 -17 65 -31 109 -38 57 -10 72 -16 80 -34 16
-35 68 -61 167 -83 51 -11 102 -26 113 -34 18 -13 17 -14 -19 -18 l-39 -4 43
-1 c26 -1 57 -11 75 -23 l32 -22 -30 28 c-16 16 -39 36 -50 46 -12 10 -55 25
-98 33 -93 18 -161 47 -176 74 -17 32 -14 34 37 28 52 -7 97 -12 125 -14 11
-1 38 -22 63 -47 43 -44 44 -45 106 -43 l63 1 -63 6 c-41 4 -66 11 -72 21 -13
24 -55 67 -71 73 -25 10 45 7 80 -3 19 -5 39 -6 45 -2 17 11 -60 21 -166 21
-53 1 -99 5 -102 10 -3 5 -25 14 -48 20 -24 6 -54 20 -68 31 l-25 20 50 1 c28
1 39 4 25 6 -14 2 -55 10 -92 18 -37 8 -85 15 -107 15 -50 0 -53 5 -81 138
-38 175 -19 329 46 383 15 12 16 12 11 -6 -22 -77 -14 -170 20 -243 10 -20 40
-60 68 -88 69 -70 141 -97 255 -97 152 0 259 63 321 189 56 114 42 247 -36
350 -14 18 -25 38 -25 44 0 6 -3 9 -8 6 -15 -9 -116 64 -128 93 -12 27 -49 50
-61 37 -4 -3 -1 -16 4 -29 11 -24 11 -24 -61 -23 l-72 1 4 27 c2 16 1 28 -3
28 -12 0 -34 -33 -35 -51 0 -9 -9 -19 -19 -22 -16 -4 -21 2 -27 26 l-6 31 -14
-25 c-7 -13 -13 -32 -14 -41 0 -10 -12 -24 -27 -32 -16 -8 -39 -26 -53 -41
-14 -15 -50 -38 -80 -52 -30 -13 -65 -34 -78 -45 -15 -15 -26 -18 -32 -12 -16
16 -14 97 3 131 23 43 104 130 173 184 l59 46 59 -14 c33 -7 64 -12 69 -10 6
2 -15 9 -46 17 -32 7 -57 16 -57 19 0 12 134 78 235 116 161 61 279 113 310
139 19 16 18 16 -13 1 -58 -28 -486 -195 -490 -191 -2 2 8 27 22 54 14 28 43
97 64 154 22 57 49 122 61 146 12 23 19 42 16 42 -2 0 -20 -30 -39 -67 l-34
-68 -10 35 c-6 19 -11 28 -11 20 -1 -8 3 -29 8 -46 7 -25 2 -46 -25 -113 -53
-127 -90 -176 -180 -233 -45 -29 -81 -45 -86 -40 -5 5 -13 44 -18 88 l-9 79 2
-100 2 -100 -62 -59 c-70 -66 -60 -73 -88 62 -8 40 -15 97 -15 125 0 60 22
213 45 315 16 69 18 72 118 173 l102 102 -89 -81 c-49 -45 -92 -82 -97 -82 -4
0 8 43 27 96 19 53 33 98 31 101 -3 2 -31 -72 -64 -164z m584 -819 c45 -26 85
-78 97 -126 5 -22 3 -28 -10 -28 -16 0 -16 -2 0 -19 24 -27 13 -88 -25 -140
-97 -135 -325 -99 -369 57 -22 80 -8 156 41 215 37 44 78 50 118 15 14 -13 20
-16 14 -8 -25 27 -13 33 60 27 l72 -6 -74 14 c-101 19 -106 23 -32 24 52 1 73
-4 108 -25z m-299 -679 c62 -29 70 -49 15 -39 -34 6 -123 50 -123 60 0 12 62
0 108 -21z m-340 -32 c18 -31 -7 -62 -64 -80 -45 -14 -58 -14 -81 -4 l-28 13
47 44 c37 35 54 44 82 44 22 0 38 -6 44 -17z m-208 -30 c-1 -20 -19 -31 -67
-37 -61 -8 -72 7 -20 29 34 15 87 20 87 8z m213 -70 c4 -3 0 -14 -9 -24 -11
-12 -13 -22 -5 -36 5 -10 12 -25 15 -33 3 -8 12 -23 18 -32 10 -13 10 -23 2
-35 -18 -28 -48 -27 -64 2 -7 14 -16 25 -19 25 -3 0 -20 9 -37 19 -26 16 -30
23 -26 51 3 22 14 38 36 51 31 19 77 25 89 12z m365 -24 c-2 -6 -8 -10 -13
-10 -5 0 -11 4 -13 10 -2 6 4 11 13 11 9 0 15 -5 13 -11z m-878 -74 c-7 -8
-17 -15 -22 -15 -6 0 -5 7 2 15 7 8 17 15 22 15 6 0 5 -7 -2 -15z m360 -14 c0
-22 -8 -29 -50 -41 -25 -7 -32 -5 -41 12 -15 27 10 48 58 48 26 0 33 -4 33
-19z m505 -11 c14 -15 15 -20 4 -20 -22 0 -42 17 -35 29 9 14 10 14 31 -9z"/>
<path d="M5126 6594 c-17 -16 -22 -54 -8 -54 14 0 42 35 42 53 0 21 -14 22
-34 1z"/>
<path d="M5332 6598 c6 -18 52 -40 56 -27 2 5 -2 16 -8 24 -15 18 -53 20 -48
3z"/>
<path d="M5186 6554 c-5 -14 9 -54 19 -54 2 0 9 9 15 21 9 15 8 24 -1 35 -15
18 -25 18 -33 -2z"/>
<path d="M5260 6512 c0 -11 8 -27 19 -36 15 -14 19 -15 24 -3 6 16 -18 57 -34
57 -5 0 -9 -8 -9 -18z"/>
<path d="M5350 6475 c0 -15 35 -38 51 -33 13 4 -19 48 -37 48 -8 0 -14 -7 -14
-15z"/>
<path d="M5060 7633 c-41 -8 -44 -20 -8 -32 26 -8 43 -8 67 0 l33 12 -32 13
c-18 8 -33 13 -34 13 0 -1 -12 -4 -26 -6z"/>
<path d="M4371 7614 c0 -11 3 -14 6 -6 3 7 2 16 -1 19 -3 4 -6 -2 -5 -13z"/>
<path d="M5322 7618 c-14 -14 -15 -37 -3 -57 13 -21 33 21 23 48 -6 17 -10 19
-20 9z"/>
<path d="M3690 7591 c0 -12 29 -41 41 -41 13 0 11 24 -3 38 -14 14 -38 16 -38
3z"/>
<path d="M3912 7589 c-13 -5 -20 -13 -17 -19 8 -13 51 -13 77 1 17 9 18 13 7
20 -17 11 -37 10 -67 -2z"/>
<path d="M3810 7571 c-13 -25 -13 -51 0 -51 12 0 30 33 30 54 0 22 -17 20 -30
-3z"/>
<path d="M4254 7564 c-7 -28 9 -74 26 -74 6 0 15 11 22 25 9 19 8 29 -6 50
-21 32 -34 32 -42 -1z"/>
<path d="M5214 7575 c-18 -14 -17 -15 20 -13 22 2 41 9 44 16 5 17 -40 15 -64
-3z"/>
<path d="M4650 7555 c-13 -14 -21 -27 -19 -30 11 -10 79 17 89 35 9 18 7 20
-18 20 -17 0 -38 -10 -52 -25z"/>
<path d="M5660 7573 c-16 -6 -49 -43 -50 -55 0 -14 75 -8 98 8 25 17 30 44 8
44 -8 0 -20 2 -28 4 -7 3 -20 2 -28 -1z"/>
<path d="M4987 7549 c-26 -15 -11 -29 31 -29 37 1 77 21 65 33 -10 11 -76 8
-96 -4z"/>
<path d="M5385 7550 c-8 -12 17 -23 41 -18 10 1 19 9 22 16 5 15 -54 17 -63 2z"/>
<path d="M5518 7549 c-19 -11 -25 -69 -8 -69 17 0 51 41 48 57 -4 21 -18 25
-40 12z"/>
<path d="M3510 7542 c0 -20 41 -44 75 -44 47 0 51 6 26 31 -21 21 -101 31
-101 13z"/>
<path d="M3972 7529 c-13 -5 -20 -13 -17 -19 8 -13 51 -13 77 1 17 9 18 13 7
20 -17 11 -37 10 -67 -2z"/>
<path d="M4480 7515 c0 -25 31 -65 50 -65 18 0 11 49 -10 70 -27 27 -40 25
-40 -5z"/>
<path d="M5213 7520 c-30 -12 -29 -30 1 -30 25 0 51 22 39 33 -8 9 -12 8 -40
-3z"/>
<path d="M3843 7496 c-26 -33 -30 -66 -8 -66 20 0 37 35 33 68 l-3 27 -22 -29z"/>
<path d="M4344 7506 c-8 -21 3 -49 16 -41 5 3 10 15 10 25 0 25 -18 36 -26 16z"/>
<path d="M5767 7502 c-18 -19 -22 -48 -11 -76 17 -45 70 13 59 64 -8 34 -24
38 -48 12z"/>
<path d="M5355 7500 c-3 -5 0 -13 9 -16 21 -8 61 -1 61 11 0 14 -62 19 -70 5z"/>
<path d="M3670 7490 c0 -13 34 -30 59 -30 24 0 27 10 9 28 -14 14 -68 16 -68
2z"/>
<path d="M4897 7474 c-56 -30 -5 -46 61 -19 29 13 34 18 22 25 -21 14 -51 12
-83 -6z"/>
<path d="M5667 7472 c-21 -23 -22 -62 -3 -62 8 0 22 10 30 22 33 46 9 80 -27
40z"/>
<path d="M4050 7465 c-7 -9 -10 -18 -7 -21 9 -9 49 3 72 20 19 15 18 15 -16
16 -21 0 -42 -7 -49 -15z"/>
<path d="M5595 7470 c-10 -17 4 -62 18 -57 13 5 12 46 -2 60 -5 5 -12 4 -16
-3z"/>
<path d="M3572 7452 c4 -18 54 -50 63 -40 12 12 -14 46 -40 50 -20 4 -25 2
-23 -10z"/>
<path d="M5060 7460 c0 -13 49 -44 57 -36 9 8 -27 46 -44 46 -7 0 -13 -4 -13
-10z"/>
<path d="M4632 7453 c-7 -3 -19 -18 -27 -34 -15 -28 -14 -29 5 -29 22 0 70 41
70 60 0 10 -25 12 -48 3z"/>
<path d="M5520 7452 c-33 -10 -60 -46 -60 -79 0 -40 17 -43 55 -10 21 18 26
29 23 58 -2 26 -7 35 -18 31z"/>
<path d="M5315 7440 c-3 -6 0 -13 9 -16 22 -8 59 -1 64 14 5 15 -64 17 -73 2z"/>
<path d="M3475 7430 c-3 -5 6 -12 20 -16 29 -7 41 -1 30 15 -8 14 -42 14 -50
1z"/>
<path d="M3874 7416 c-8 -14 -14 -35 -12 -48 l3 -23 23 25 c22 24 30 70 12 70
-5 0 -17 -11 -26 -24z"/>
<path d="M4120 7407 l-35 -22 42 -3 c43 -3 98 22 87 39 -10 16 -58 9 -94 -14z"/>
<path d="M3680 7411 c0 -14 41 -41 62 -41 23 0 32 18 18 35 -14 16 -80 21 -80
6z"/>
<path d="M4955 7398 c-33 -18 -55 -51 -55 -85 0 -42 13 -42 56 1 48 48 47 109
-1 84z"/>
<path d="M3960 7387 c0 -20 41 -54 73 -62 36 -9 35 8 -2 46 -30 30 -71 39 -71
16z"/>
<path d="M5050 7390 c0 -17 47 -60 65 -60 23 0 18 18 -11 45 -28 26 -54 33
-54 15z"/>
<path d="M5398 7375 c-9 -20 -9 -28 1 -38 9 -9 14 -9 21 3 13 20 13 47 0 55
-5 3 -15 -5 -22 -20z"/>
<path d="M5672 7378 c-18 -18 -16 -59 3 -52 18 7 30 43 18 55 -5 5 -14 4 -21
-3z"/>
<path d="M3450 7362 c0 -26 32 -52 63 -52 35 0 35 22 1 49 -33 26 -64 27 -64
3z"/>
<path d="M3605 7371 c-8 -13 33 -34 52 -27 12 5 13 9 3 21 -14 17 -46 20 -55
6z"/>
<path d="M4231 7359 c-31 -19 -33 -22 -17 -31 20 -11 61 -3 95 19 19 12 21 17
10 24 -23 14 -52 10 -88 -12z"/>
<path d="M5337 7362 c-22 -24 -23 -72 -2 -72 22 0 40 45 29 71 -9 20 -10 20
-27 1z"/>
<path d="M5777 7363 c-15 -14 -6 -24 20 -21 34 4 43 28 11 28 -14 0 -28 -3
-31 -7z"/>
<path d="M3906 7345 c-3 -9 -6 -26 -6 -37 0 -27 24 -17 28 11 5 29 -13 49 -22
26z"/>
<path d="M4124 7336 c-9 -24 4 -66 21 -66 20 0 20 53 0 70 -12 10 -16 9 -21
-4z"/>
<path d="M5257 7343 c-11 -10 -8 -63 3 -63 14 0 31 37 24 54 -7 17 -16 20 -27
9z"/>
<path d="M3700 7332 c0 -19 38 -42 68 -42 36 0 40 10 14 33 -19 17 -82 24 -82
9z"/>
<path d="M4356 7321 c-10 -11 -16 -28 -14 -38 3 -16 7 -15 31 9 15 15 27 32
27 38 0 17 -26 11 -44 -9z"/>
<path d="M5597 7323 c-11 -10 -8 -53 3 -53 13 0 32 38 25 50 -7 12 -19 13 -28
3z"/>
<path d="M4820 7302 c0 -22 36 -59 47 -48 9 9 -18 58 -34 64 -8 2 -13 -5 -13
-16z"/>
<path d="M4588 7293 c-19 -21 -24 -63 -8 -63 14 0 32 38 28 62 -3 20 -3 20
-20 1z"/>
<path d="M5080 7302 c0 -14 29 -42 42 -42 6 0 4 9 -4 22 -16 24 -38 35 -38 20z"/>
<path d="M5465 7300 c3 -5 12 -10 20 -10 8 0 17 5 20 10 4 6 -5 10 -20 10 -15
0 -24 -4 -20 -10z"/>
<path d="M5737 7304 c-16 -16 -5 -25 26 -22 17 2 31 8 30 13 -3 12 -46 19 -56
9z"/>
<path d="M3590 7259 c0 -31 6 -47 29 -70 36 -36 49 -36 57 -4 8 31 -12 81 -40
100 -35 25 -46 19 -46 -26z"/>
<path d="M4001 7291 c-11 -7 -9 -11 8 -20 23 -13 69 -5 55 9 -16 14 -49 20
-63 11z"/>
<path d="M4208 7272 c-7 -25 10 -64 24 -60 18 6 22 46 8 64 -16 19 -27 18 -32
-4z"/>
<path d="M5426 7273 c-11 -11 6 -23 30 -23 14 0 23 4 20 9 -7 11 -43 21 -50
14z"/>
<path d="M3412 7250 c4 -30 44 -59 91 -67 32 -5 37 -3 37 15 0 37 -32 64 -84
69 -45 6 -48 5 -44 -17z"/>
<path d="M4939 7251 c-27 -22 -21 -36 10 -26 26 8 49 45 27 45 -7 0 -24 -9
-37 -19z"/>
<path d="M3747 7253 c-24 -6 -16 -27 12 -31 32 -5 76 7 65 18 -12 12 -55 19
-77 13z"/>
<path d="M5700 7250 c-13 -9 -13 -11 0 -20 8 -5 20 -10 25 -10 14 0 40 18 35
23 -13 12 -47 15 -60 7z"/>
<path d="M4783 7233 c-7 -18 15 -64 33 -70 20 -7 25 27 9 58 -17 33 -32 37
-42 12z"/>
<path d="M4290 7206 c0 -39 26 -69 41 -45 12 20 11 31 -7 57 -22 31 -34 27
-34 -12z"/>
<path d="M5356 7225 c10 -8 33 -14 49 -14 29 0 29 0 11 14 -11 8 -33 15 -50
15 -28 0 -29 -1 -10 -15z"/>
<path d="M4044 7218 c-10 -15 24 -38 58 -38 34 0 36 13 6 34 -26 19 -54 21
-64 4z"/>
<path d="M5284 7205 c11 -8 31 -15 44 -15 21 0 22 2 12 15 -7 8 -27 15 -44 15
-29 -1 -30 -1 -12 -15z"/>
<path d="M5645 7200 c-6 -10 26 -30 49 -30 9 0 16 4 16 9 0 13 -58 32 -65 21z"/>
<path d="M4402 7188 c-15 -15 -16 -43 -1 -69 8 -16 13 -18 25 -8 17 14 18 49
1 72 -10 14 -15 15 -25 5z"/>
<path d="M4922 7188 c-17 -17 -15 -28 6 -28 11 0 27 9 37 20 18 19 17 20 -6
20 -14 0 -30 -5 -37 -12z"/>
<path d="M3781 7181 c-11 -7 -10 -11 7 -20 25 -14 62 -14 82 -1 13 9 13 11 0
20 -19 12 -70 13 -89 1z"/>
<path d="M5594 7151 c11 -11 31 -21 45 -21 22 0 23 2 11 14 -8 8 -28 18 -45
22 l-30 7 19 -22z"/>
<path d="M3707 7148 c-6 -18 11 -48 28 -48 21 0 19 24 -4 44 -15 13 -20 14
-24 4z"/>
<path d="M4125 7140 c-11 -18 42 -42 77 -35 l32 7 -23 19 c-25 20 -76 26 -86
9z"/>
<path d="M4750 7131 c0 -27 44 -76 59 -67 22 14 -15 86 -46 86 -7 0 -13 -9
-13 -19z"/>
<path d="M5733 7139 c-25 -9 -32 -39 -9 -39 16 0 39 26 34 38 -2 6 -13 6 -25
1z"/>
<path d="M5828 7139 c-10 -5 -18 -21 -18 -34 0 -22 4 -25 38 -25 41 0 72 23
72 53 0 13 -9 17 -37 17 -21 0 -46 -5 -55 -11z"/>
<path d="M3448 7134 c-49 -15 12 -56 82 -56 27 1 57 5 65 10 14 7 13 11 -5 27
-20 18 -105 30 -142 19z"/>
<path d="M4913 7114 c-29 -29 -25 -39 11 -30 26 6 56 31 56 47 0 18 -42 8 -67
-17z"/>
<path d="M3780 7106 c0 -22 26 -43 38 -31 8 8 -16 55 -28 55 -5 0 -10 -11 -10
-24z"/>
<path d="M3868 7123 c-10 -3 -18 -8 -18 -13 0 -25 76 -49 104 -33 15 8 15 11
-1 25 -21 18 -60 27 -85 21z"/>
<path d="M4217 7073 c-12 -12 15 -33 43 -33 45 0 63 10 49 26 -12 14 -80 20
-92 7z"/>
<path d="M5470 7060 c0 -12 33 -30 54 -30 24 0 19 15 -9 28 -31 15 -45 15 -45
2z"/>
<path d="M3613 7053 c-20 -7 -15 -23 6 -23 28 0 52 11 45 21 -6 10 -31 11 -51
2z"/>
<path d="M4916 7041 c-11 -12 -13 -21 -7 -25 16 -10 58 4 77 25 17 18 16 19
-18 19 -22 0 -41 -7 -52 -19z"/>
<path d="M5696 7051 c-7 -11 17 -21 50 -21 30 0 31 16 2 24 -32 8 -46 7 -52
-3z"/>
<path d="M3452 7034 c-41 -17 -50 -34 -17 -34 25 0 95 25 95 33 0 12 -52 13
-78 1z"/>
<path d="M3993 7043 c-7 -2 -13 -9 -13 -14 0 -12 57 -12 65 1 3 6 2 10 -4 10
-5 0 -15 2 -23 4 -7 3 -19 2 -25 -1z"/>
<path d="M5590 7036 c8 -8 29 -18 45 -21 l30 -6 -24 20 c-28 25 -75 31 -51 7z"/>
<path d="M4750 7019 c0 -28 17 -56 40 -69 18 -10 20 -7 20 19 0 18 -9 38 -22
51 -28 25 -38 25 -38 -1z"/>
<path d="M3683 7018 c-28 -13 -29 -24 -5 -30 23 -6 87 14 87 27 0 14 -56 16
-82 3z"/>
<path d="M4322 7019 c-13 -5 -20 -13 -17 -19 8 -13 51 -13 77 1 17 9 18 13 7
20 -17 11 -37 10 -67 -2z"/>
<path d="M5310 7013 c-45 -17 -69 -73 -31 -73 26 0 71 38 71 61 0 19 -11 22
-40 12z"/>
<path d="M5812 7008 c-13 -13 -16 -41 -6 -51 14 -13 34 7 34 34 0 31 -9 36
-28 17z"/>
<path d="M5892 6994 c-32 -22 -28 -44 8 -44 28 0 50 22 50 49 0 16 -32 13 -58
-5z"/>
<path d="M3471 6969 c-27 -16 -31 -23 -20 -30 35 -22 159 1 159 30 0 28 -94
28 -139 0z"/>
<path d="M3780 6980 c-12 -8 -12 -10 3 -16 9 -3 29 -3 44 1 21 5 24 8 12 16
-18 11 -40 11 -59 -1z"/>
<path d="M5410 6970 c-11 -11 -20 -29 -20 -39 0 -17 4 -18 32 -10 34 9 48 24
48 52 0 24 -35 22 -60 -3z"/>
<path d="M5733 6979 c-30 -11 -31 -49 -3 -49 22 0 34 19 28 43 -2 11 -9 12
-25 6z"/>
<path d="M5528 6966 c-20 -14 -25 -56 -7 -56 25 0 49 22 49 45 0 28 -16 31
-42 11z"/>
<path d="M5632 6968 c-21 -11 -41 -53 -29 -64 3 -3 18 0 34 8 19 9 29 22 31
41 4 29 -1 31 -36 15z"/>
<path d="M3594 6915 c-19 -14 -19 -14 2 -15 11 0 29 7 40 15 19 14 19 14 -2
15 -11 0 -29 -7 -40 -15z"/>
<path d="M4168 6923 c7 -3 16 -2 19 1 4 3 -2 6 -13 5 -11 0 -14 -3 -6 -6z"/>
<path d="M5178 6923 c7 -3 16 -2 19 1 4 3 -2 6 -13 5 -11 0 -14 -3 -6 -6z"/>
<path d="M3983 6898 c-13 -14 -23 -37 -23 -53 l0 -30 26 26 c18 18 25 34 22
53 l-3 28 -22 -24z"/>
<path d="M5218 6913 c7 -3 16 -2 19 1 4 3 -2 6 -13 5 -11 0 -14 -3 -6 -6z"/>
<path d="M3671 6897 c-14 -6 -26 -18 -29 -26 -7 -20 47 -5 73 20 19 19 19 19
0 19 -11 0 -31 -6 -44 -13z"/>
<path d="M5855 6902 c14 -15 40 -19 43 -7 1 6 -10 11 -25 13 -19 2 -25 0 -18
-6z"/>
<path d="M3769 6885 c-14 -7 -30 -25 -37 -39 -11 -25 -10 -25 16 -15 34 13 62
38 62 56 0 16 -8 16 -41 -2z"/>
<path d="M3880 6883 c-32 -22 -40 -33 -40 -61 0 -22 1 -22 30 -7 16 8 32 26
36 40 10 38 2 47 -26 28z"/>
<path d="M4057 6893 c-11 -10 -8 -63 3 -63 14 0 31 37 24 54 -7 17 -16 20 -27
9z"/>
<path d="M4125 6859 c-8 -23 -1 -34 14 -24 13 8 15 45 2 45 -5 0 -13 -9 -16
-21z"/>
<path d="M5782 6868 c6 -16 55 -34 65 -24 10 10 -26 36 -50 36 -10 0 -17 -5
-15 -12z"/>
<path d="M5700 6850 c0 -14 47 -43 62 -38 8 3 4 12 -10 26 -23 23 -52 30 -52
12z"/>
<path d="M5415 6828 c8 -27 41 -58 62 -58 20 0 8 39 -19 63 -29 25 -51 22 -43
-5z"/>
<path d="M5610 6842 c0 -14 35 -42 53 -42 34 0 13 31 -30 44 -13 4 -23 3 -23
-2z"/>
<path d="M4280 6831 c0 -21 13 -41 26 -41 17 0 18 22 2 38 -14 14 -28 16 -28
3z"/>
<path d="M5520 6827 c0 -17 38 -53 46 -44 10 10 -3 35 -25 47 -17 8 -21 8 -21
-3z"/>
<path d="M8500 6708 c0 -116 -1 -120 -18 -105 -72 65 -210 60 -292 -10 -137
-118 -113 -356 43 -429 85 -39 202 -29 259 23 17 15 18 14 18 -15 l0 -32 65 0
65 0 0 345 0 345 -70 0 -70 0 0 -122z m-55 -192 c60 -40 79 -137 40 -203 -52
-88 -192 -80 -231 12 -57 137 74 268 191 191z"/>
<path d="M4200 6812 c0 -16 32 -52 46 -52 20 0 18 16 -6 40 -20 20 -40 26 -40
12z"/>
<path d="M920 6464 l0 -326 218 4 c232 6 281 15 330 61 79 74 64 211 -29 259
l-36 18 37 38 c88 87 46 227 -77 261 -21 6 -129 11 -240 11 l-203 0 0 -326z
m375 212 c54 -23 62 -93 14 -129 -21 -15 -49 -20 -133 -24 l-106 -6 0 87 0 86
95 0 c60 0 108 -5 130 -14z m35 -269 c60 -30 59 -109 -1 -139 -26 -14 -59 -18
-146 -18 l-113 0 0 85 0 85 118 0 c74 0 126 -5 142 -13z"/>
<path d="M4120 6777 c0 -16 32 -47 48 -47 20 0 13 28 -10 44 -28 20 -38 20
-38 3z"/>
<path d="M4030 6762 c0 -23 30 -52 53 -52 24 0 21 17 -8 45 -29 30 -45 32 -45
7z"/>
<path d="M3810 6760 c0 -17 47 -60 65 -60 21 0 19 26 -5 50 -21 21 -60 27 -60
10z"/>
<path d="M3930 6751 c0 -20 35 -51 57 -51 22 0 14 27 -13 49 -33 26 -44 26
-44 2z"/>
<path d="M3670 6719 c-24 -10 -24 -11 -6 -25 24 -17 66 -18 100 -2 59 26 -31
52 -94 27z"/>
<path d="M5549 6711 c-13 -11 -21 -23 -17 -27 12 -11 58 13 58 31 0 20 -13 19
-41 -4z"/>
<path d="M5628 6698 l-23 -23 23 -3 c24 -4 72 22 72 38 0 19 -50 10 -72 -12z"/>
<path d="M3774 6645 c-18 -14 -18 -14 8 -15 32 0 58 9 58 21 0 14 -44 10 -66
-6z"/>
<path d="M1770 6635 c-225 -73 -226 -403 -1 -480 89 -30 231 -13 289 35 26 22
22 38 -21 78 l-25 23 -33 -20 c-37 -23 -119 -28 -164 -11 -33 13 -75 58 -75
81 0 18 12 19 190 19 l190 0 0 48 c-1 86 -55 173 -135 214 -51 27 -154 33
-215 13z m144 -99 c37 -16 76 -60 76 -87 0 -18 -10 -19 -125 -19 -137 0 -140
2 -111 58 27 52 98 74 160 48z"/>
<path d="M3863 6640 c-80 -19 -143 -84 -143 -149 0 -84 49 -122 186 -146 85
-16 124 -32 124 -54 0 -4 -6 -16 -14 -27 -21 -28 -153 -27 -217 3 l-46 21 -21
-50 -21 -50 47 -21 c65 -29 211 -36 280 -12 95 31 142 117 106 192 -25 49 -61
69 -172 92 -122 25 -147 46 -100 87 12 10 18 13 14 7 -11 -19 44 -16 65 3 11
10 25 13 38 9 18 -5 19 -10 10 -27 -15 -28 -6 -32 24 -8 30 24 47 26 47 5 0
-19 10 -19 38 1 14 10 22 25 21 42 -1 15 1 34 5 43 14 32 -181 61 -271 39z"/>
<path d="M5914 6631 c-23 -10 -45 -24 -48 -30 -12 -19 -26 -12 -26 14 0 24 -2
25 -65 25 l-65 0 0 -340 0 -340 70 0 70 0 0 122 0 121 23 -21 c32 -30 70 -42
135 -42 108 0 199 66 233 167 15 47 7 169 -14 210 -57 110 -205 163 -313 114z
m121 -105 c99 -42 101 -211 4 -262 -48 -25 -113 -14 -152 25 -27 26 -31 39
-35 93 -4 75 19 121 71 143 41 18 69 18 112 1z"/>
<path d="M7058 6634 c-106 -37 -169 -126 -169 -237 0 -110 48 -187 146 -233
55 -26 150 -32 217 -14 166 47 232 262 124 405 -60 78 -212 115 -318 79z m178
-119 c53 -34 71 -142 34 -202 -61 -101 -220 -72 -239 44 -9 47 4 111 27 137
42 46 124 56 178 21z"/>
<path d="M7672 6631 c-105 -36 -165 -122 -166 -236 -1 -106 42 -177 138 -228
34 -18 57 -22 141 -22 102 0 139 11 188 53 17 15 16 18 -19 53 l-37 38 -36
-20 c-48 -26 -135 -26 -178 1 -27 16 -63 65 -63 85 0 3 88 5 196 5 l197 0 -7
56 c-21 179 -179 275 -354 215z m153 -97 c35 -16 57 -42 69 -81 l7 -23 -131 0
-132 0 7 28 c9 35 32 61 70 78 40 18 70 17 110 -2z"/>
<path d="M8920 6635 c-225 -73 -226 -403 -1 -480 89 -30 231 -13 289 35 26 22
22 38 -21 78 l-25 23 -33 -20 c-37 -23 -119 -28 -164 -11 -33 13 -75 58 -75
81 0 18 12 19 190 19 l190 0 0 48 c-1 86 -55 173 -135 214 -51 27 -154 33
-215 13z m144 -99 c37 -16 76 -60 76 -87 0 -18 -10 -19 -125 -19 -137 0 -140
2 -111 58 27 52 98 74 160 48z"/>
<path d="M9605 6638 c-16 -6 -42 -19 -57 -29 -34 -25 -38 -24 -38 6 0 24 -2
25 -65 25 l-65 0 0 -250 0 -250 70 0 70 0 0 150 c0 115 4 158 15 180 39 75
163 81 200 11 12 -23 15 -65 15 -186 l0 -155 70 0 70 0 0 163 c0 194 -12 249
-65 296 -55 48 -148 64 -220 39z"/>
<path d="M2253 6390 l90 -250 66 0 66 0 60 160 c33 88 62 156 66 152 3 -4 30
-76 60 -159 l54 -153 66 0 67 0 41 113 c22 61 63 173 90 247 l49 135 -56 3
c-30 2 -58 -1 -62 -5 -4 -4 -33 -81 -65 -171 -32 -89 -61 -160 -64 -156 -3 3
-31 78 -62 167 l-56 162 -61 3 -60 3 -20 -53 c-11 -29 -39 -106 -62 -171 -24
-64 -45 -115 -48 -113 -3 3 -30 79 -62 168 l-56 163 -66 3 -65 3 90 -251z"/>
<path d="M3110 6463 c0 -205 11 -243 82 -290 68 -46 191 -44 247 2 37 32 41
31 41 -5 l0 -30 65 0 65 0 0 250 0 250 -69 0 -70 0 -3 -161 -3 -161 -33 -29
c-25 -23 -42 -29 -76 -29 -97 0 -106 20 -106 225 l0 155 -70 0 -70 0 0 -177z"/>
<path d="M5592 6632 c-23 -7 8 -32 40 -32 25 0 28 3 19 14 -14 16 -40 25 -59
18z"/>
<path d="M6290 6637 c0 -2 46 -114 103 -248 l103 -244 73 0 73 0 103 245 103
245 -55 3 c-31 2 -61 1 -67 -1 -6 -3 -42 -79 -80 -171 -39 -91 -73 -163 -77
-159 -4 5 -37 80 -72 168 l-65 160 -71 3 c-39 2 -71 1 -71 -1z"/>
<path d="M3997 5943 c18 -2 50 -2 70 0 21 2 7 4 -32 4 -38 0 -55 -2 -38 -4z"/>
<path d="M5523 5923 c9 -2 23 -2 30 0 6 3 -1 5 -18 5 -16 0 -22 -2 -12 -5z"/>
<path d="M5468 5893 c7 -3 16 -2 19 1 4 3 -2 6 -13 5 -11 0 -14 -3 -6 -6z"/>
<path d="M4085 5880 c4 -6 11 -8 16 -5 14 9 11 15 -7 15 -8 0 -12 -5 -9 -10z"/>
<path d="M4030 5870 c8 -5 24 -9 35 -9 l20 0 -20 9 c-11 5 -27 9 -35 9 -13 1
-13 0 0 -9z"/>
<path d="M3943 5863 c9 -2 25 -2 35 0 9 3 1 5 -18 5 -19 0 -27 -2 -17 -5z"/>
<path d="M5607 5785 c10 -13 25 -27 33 -30 8 -4 2 8 -14 24 -36 37 -43 40 -19
6z"/>
<path d="M3740 5765 c-6 -8 -10 -19 -8 -26 2 -6 9 0 16 15 13 29 10 33 -8 11z"/>
<path d="M3978 5723 c7 -3 16 -2 19 1 4 3 -2 6 -13 5 -11 0 -14 -3 -6 -6z"/>
<path d="M5505 5702 c4 -8 11 -26 15 -40 7 -22 8 -23 9 -6 1 11 -6 29 -15 40
-8 10 -12 13 -9 6z"/>
<path d="M5354 5684 c23 -13 27 -21 23 -42 -5 -24 -4 -25 8 -8 17 23 11 40
-21 55 -36 16 -44 13 -10 -5z"/>
<path d="M4015 5654 c-9 -15 -12 -23 -6 -20 11 7 35 46 28 46 -3 0 -12 -12
-22 -26z"/>
<path d="M4744 5478 l-19 -23 23 19 c21 18 27 26 19 26 -2 0 -12 -10 -23 -22z"/>
<path d="M5032 5470 c0 -14 2 -19 5 -12 2 6 2 18 0 25 -3 6 -5 1 -5 -13z"/>
</g>
</svg>
