<svg version="1.2" xmlns="http://www.w3.org/2000/svg" viewBox="0 0 921 315" width="921" height="315">
	<title>logo-svg</title>
	<style>
		.s0 { fill: #000000 } 
	</style>
	<g>
		<path class="s0" d="m379.5 11c-0.8 1.2 2 6 3.5 6 1.7 0 1.1-3.6-0.9-5.4-1.3-1.2-2.1-1.4-2.6-0.6z"/>
		<path class="s0" d="m397.4 11.3c-0.3 1-0.1 3 0.5 4.5 1 2.1 1.4 2.3 2.2 1.1 1.2-2 1.1-3.2-0.5-5.5-1.4-1.8-1.5-1.8-2.2-0.1z"/>
		<path class="s0" d="m404 15.4c-1.4 4.4-0.1 9.2 3.4 12.5 2.6 2.5 3 2.2 4.1-2.6 0.7-3.5-1.3-8.9-4.5-11.8-1.7-1.5-1.9-1.4-3 1.9z"/>
		<path class="s0" d="m371.4 14.8c-3.4 2.3-6 10.2-3.4 10.2 2.3 0 6-5 6-8 0-3-0.6-3.6-2.6-2.2z"/>
		<path class="s0" d="m391.2 16.3c-2.8 2.9-3.8 9-2.3 13.1 1 2.4 1.4 2.6 2.7 1.5 4-3.3 5.3-9.1 3.1-14.2l-1.2-2.9z"/>
		<path class="s0" d="m346 19.5c-1.3 3.9-0.3 8.4 2.7 11.7 2.3 2.5 3 2.3 4.3-1.6 1.3-3.9-0.3-8.8-3.8-11.9-2-1.8-2-1.8-3.2 1.8z"/>
		<path class="s0" d="m362 17.1c0 0.9 0.7 2.2 1.5 2.9 1.9 1.6 1.9 0 0-2.6-1.2-1.6-1.4-1.6-1.5-0.3z"/>
		<path class="s0" d="m416.6 17.5c-1.7 1.8-2.2 6.5-0.7 6.5 1.4 0 5.2-5.1 4.8-6.4-0.6-1.7-2.4-1.8-4.1-0.1z"/>
		<path class="s0" d="m432 21.4c0 3 3.3 7.2 4.8 6.2 1.8-1.1 1.5-3-0.9-6-2.5-3.2-3.9-3.3-3.9-0.2z"/>
		<path class="s0" d="m337 21.9c0 2.3 3.5 5.6 4.4 4.2 0.9-1.4-0.9-4.7-2.9-5.5-1-0.3-1.5 0.1-1.5 1.3z"/>
		<path class="s0" d="m356.5 22c-0.7 2.3 0.2 6 1.5 6 1.3 0 2.2-3.7 1.5-6-0.3-1.1-1-2-1.5-2-0.5 0-1.2 0.9-1.5 2z"/>
		<path class="s0" d="m377.7 21.8c-1.9 2.1-2.2 4.2-0.7 4.2 1.3 0 5-3.7 5-5 0-1.6-2.6-1.1-4.3 0.8z"/>
		<path class="s0" d="m425.5 26c-2.1 2.3-2.4 8.5-0.5 12l1.3 2.4 2.3-2.8c2.8-3.1 3-6.5 0.9-10.6-1.8-3.6-1.7-3.5-4-1z"/>
		<path class="s0" d="m442.9 25.6c-1.5 1.8-1.6 8.1-0.1 9.6 2.3 2.3 5.2-5.5 3.6-9.6-0.8-2-1.8-2-3.5 0z"/>
		<path class="s0" d="m327.6 27.6c-1.5 3.9-0.6 9.1 2.1 11.8 3.2 3.2 4.3 2.2 4.3-4 0-2.7-0.7-5.1-2.1-6.8-2.4-3-3.4-3.3-4.3-1z"/>
		<path class="s0" d="m359.7 31.4c-3.9 3.8-5.6 9.2-3.9 12.2 0.9 1.6 1.3 1.5 4.5-1.7 3.8-3.8 5.6-9.5 3.9-12.4-0.8-1.5-1.3-1.3-4.5 1.9z"/>
		<path class="s0" d="m413.6 30.2c-1.8 2.5-2.1 4.8-0.7 4.8 1.6 0 6.1-4.1 6.1-5.6 0-2.2-3.7-1.7-5.4 0.8z"/>
		<path class="s0" d="m402 30.2c0 1.8 2.8 5.8 4.1 5.8 1.8 0 0.5-4.2-1.8-5.8-1.9-1.2-2.3-1.2-2.3 0z"/>
		<path class="s0" d="m339 34.6c0 3.9 0.5 5.1 3.6 8.2 2.9 2.9 3.7 3.3 4.5 2.1 2.2-3.5-0.1-10.3-4.5-13.3-1.4-0.9-2.8-1.6-3.1-1.6-0.3 0-0.5 2.1-0.5 4.6z"/>
		<path class="s0" d="m372.4 31.8c-2.6 2.1-4.4 5.4-4.4 8.1 0 4.3 5.6 0.5 6.6-4.4 0.8-4.7 0.3-5.7-2.2-3.7z"/>
		<path class="s0" d="m380 31.5c0 1.8 4.3 6.5 6 6.5 2 0 1-3.9-1.6-5.9-3.2-2.5-4.4-2.6-4.4-0.6z"/>
		<path class="s0" d="m450 32.5c-0.6 0.8-1 2.2-0.8 3.2 0.3 1.6 0.5 1.6 2.6-0.5 1.2-1.2 2.2-2.7 2.2-3.2 0-1.5-2.6-1.2-4 0.5z"/>
		<path class="s0" d="m395.6 35.3c-1.8 1.9-2.6 3.7-2.6 6.2v3.6l2.9-2c3.1-2.3 5-7.6 3.3-9.3q-1.1-1.1-3.6 1.5z"/>
		<path class="s0" d="m436 34.9c0 2.5 1 5.1 2 5.1 1.4 0 2-3.1 1-5.1-1.4-2.4-3-2.5-3 0z"/>
		<path class="s0" d="m319.2 35.7c0.4 2.1 5.1 4.8 5.7 3.2 0.4-1.4-2.9-4.9-4.6-4.9-0.8 0-1.3 0.7-1.1 1.7z"/>
		<path class="s0" d="m415 38c-2.5 2.5-2.6 4-0.1 4 2 0 7.1-3.6 7.1-5.1 0-1.7-5-0.9-7 1.1z"/>
		<path class="s0" d="m454.9 40.1c-2.1 4.1 1.3 12.9 3.8 9.7 1.9-2.5 2.3-5.2 1.2-8.5-1.2-3.8-3.3-4.3-5-1.2z"/>
		<path class="s0" d="m317.1 40.7c-1.3 2.6-1.5 6-0.2 6.7 1.4 0.9 3.1-4.2 2.2-6.6l-0.8-2.2z"/>
		<path class="s0" d="m401.3 40.7c-0.7 1.8 1.5 6.4 3.5 7.1 1.5 0.5 1.6-4.1 0.2-6.9-1.3-2.3-2.8-2.5-3.7-0.2z"/>
		<path class="s0" d="m444.9 40.9c-2.1 1.7-2.2 2-0.7 2.6 1.9 0.8 7-1.4 7.6-3.3 0.6-1.9-4.3-1.4-6.9 0.7z"/>
		<path class="s0" d="m382 42.9c1.1 2.1 4.7 3.7 5.8 2.6 0.9-0.9-3.5-4.5-5.4-4.5-1.1 0-1.2 0.4-0.4 1.9z"/>
		<path class="s0" d="m431.4 42.4c-1 2.6 0 7.1 1.6 7.1 1.7 0 2.4-2.7 1.6-6.1-0.7-2.7-2.4-3.2-3.2-1z"/>
		<path class="s0" d="m465.4 42.3c-0.7 2-0.2 4.7 1.1 5 1.4 0.3 1.9-4.3 0.6-5.6-0.7-0.7-1.2-0.6-1.7 0.6z"/>
		<path class="s0" d="m306.2 44.5c-1.9 4.1-1.4 8.1 1.3 11.2 2.1 2.4 2.6 2.6 3.5 1.3 2.1-3.2 2.3-8.2 0.5-11.7-2.2-4-3.8-4.2-5.3-0.8z"/>
		<path class="s0" d="m372.4 44.5c-0.9 1.3-1.4 2.9-1.2 3.5 0.5 1.5 5.8-2.7 5.8-4.6 0-2.3-2.8-1.6-4.6 1.1z"/>
		<path class="s0" d="m415.2 45.6c-2.9 2-2.8 4.4 0.1 4.4 2.2 0 4.4-1.7 6.1-4.8 1-1.8-3.5-1.6-6.2 0.4z"/>
		<path class="s0" d="m338.6 45.9c-0.8 1.2 0.3 4.1 1.5 4.1 0.5 0 0.9-1.1 0.9-2.5 0-2.5-1.4-3.4-2.4-1.6z"/>
		<path class="s0" d="m322.2 46.9c-2.8 1.7 4.5 4.6 8.2 3.2 1.8-0.7 1.8-0.8-0.5-2.4-2.5-1.8-5.6-2.2-7.7-0.8z"/>
		<path class="s0" d="m443.7 47.1c-2.5 1.5-1.2 2.9 2.7 2.9 3.3 0 6.2-2 4.9-3.3-1-1-5.6-0.8-7.6 0.4z"/>
		<path class="s0" d="m361 47.9c0 1.3 4 6.1 5.1 6.1 1.8 0 0.9-3.9-1.3-5.4-2.5-1.8-3.8-2-3.8-0.7z"/>
		<path class="s0" d="m375.4 51.4c-5.9 5.9-3.5 9.3 2.5 3.7 3-2.8 4.2-7.1 2-7.1-0.6 0-2.6 1.5-4.5 3.4z"/>
		<path class="s0" d="m398.7 48.7c-1.4 1.4-0.6 4.5 1.9 7 3 3 5 2 3.6-1.8-1.2-2.9-4.6-6.2-5.5-5.2z"/>
		<path class="s0" d="m424.9 50.4c-0.9 1.8-0.7 3.1 0.6 5.7 1.7 3.1 1.8 3.2 3.1 1.4 1.8-2.4 1.7-2.9-0.1-6.5-1.9-3.6-2.2-3.7-3.6-0.6z"/>
		<path class="s0" d="m472 50.9c-1 2-0.4 5.1 1.1 5.1 1.1 0 3.9-4.1 3.9-5.7 0-2-3.8-1.5-5 0.6z"/>
		<path class="s0" d="m343.7 50.7c-1 1-0.8 4.3 0.2 4.3 0.9 0 2.1-2.4 2.1-4.1 0-1.1-1.4-1.2-2.3-0.2z"/>
		<path class="s0" d="m385.9 52c2.4 2.1 4.1 2.6 4.1 1.2 0-1.5-2.4-3.2-4.4-3.2-2 0.1-2 0.1 0.3 2z"/>
		<path class="s0" d="m295 52.4c0 2 3.5 5.6 5.5 5.6 1.8 0 2-3.4 0.3-4.8-0.7-0.5-2.3-1.3-3.5-1.6-1.7-0.6-2.3-0.3-2.3 0.8z"/>
		<path class="s0" d="m315 52.9c-0.5 1.1-1 3-1 4.2 0 2.1 0.1 2.2 2 0.4 2-1.8 2.8-6.5 1-6.5-0.5 0-1.4 0.9-2 1.9z"/>
		<path class="s0" d="m462.5 55c-1.9 3.7-1.9 5.1 0.1 9.8l1.5 3.7 2-2.4c2.1-2.5 2.5-7.5 0.9-11.5-1.3-3.4-2.6-3.3-4.5 0.4z"/>
		<path class="s0" d="m416.3 54c-2 0.8-4.3 3.8-4.3 5.5 0 1.4 5.6-0.7 7.3-2.7 3-3.6 1.8-4.7-3-2.8z"/>
		<path class="s0" d="m440 54.5c-1 1.2-0.9 1.6 0.5 2.1 2.1 0.9 6.7-0.6 7.3-2.4 0.6-1.8-6.3-1.6-7.8 0.3z"/>
		<path class="s0" d="m453.7 54.8c-2 2.2-2.2 5.2-0.4 5.2 1.9 0 4.7-3.3 4.7-5.3 0-2.2-2.3-2.2-4.3 0.1z"/>
		<path class="s0" d="m327.1 54.9c-2.4 1.6 3.2 4.4 7.1 3.6l3.2-0.7-2.3-1.9c-2.5-2-5.7-2.4-8-1z"/>
		<path class="s0" d="m347.6 55.5c-0.6 1.8 0.2 4.5 1.5 4.5 0.5 0 0.9-1.4 0.9-3 0-3.2-1.4-4-2.4-1.5z"/>
		<path class="s0" d="m359 57.3c0 2.1 3.6 6.7 5.3 6.7 1.8 0 0.5-6-1.5-7.4-3-2.2-3.8-2-3.8 0.7z"/>
		<path class="s0" d="m381.8 56.4c-1.9 1.9-2.3 4.2-0.9 5 1.4 0.9 3.3-2.1 2.9-4.5-0.3-2.2-0.4-2.2-2-0.5z"/>
		<path class="s0" d="m388.4 57.5c1 0.8 2.3 1.2 2.9 0.8 1.1-0.7-1.2-2.3-3.3-2.3-1.2 0.1-1.1 0.4 0.4 1.5z"/>
		<path class="s0" d="m318.7 59.4c-1.1 2.8-0.8 6.8 0.5 6.4 1.9-0.7 2.8-4.5 1.4-6.3-1.2-1.7-1.3-1.7-1.9-0.1z"/>
		<path class="s0" d="m421.7 58.6c-1.2 1.2-0.8 5.1 0.6 6.3 1.6 1.3 2.7 0.5 2.7-1.9 0-2.1-2.4-5.3-3.3-4.4z"/>
		<path class="s0" d="m477.4 59c-2.6 1-5.4 4.8-5.4 7.2 0 2.7 4.6 2.3 7.5-0.7 2.6-2.5 3.4-7.5 1.3-7.4-0.7 0-2.3 0.4-3.4 0.9z"/>
		<path class="s0" d="m296.5 63c-2.8 5.3-1.2 14.6 2.1 11.9 2.5-2.1 3.8-8.4 2.4-11.8-1.6-3.9-2.5-3.9-4.5-0.1z"/>
		<path class="s0" d="m435.7 61.1c-0.9 0.6-1.5 1.4-1.2 2 0.8 1.2 6.6 1.1 8.5-0.1 3.3-2.2-3.6-4-7.3-1.9z"/>
		<path class="s0" d="m286.6 62.6c-1 2.7-0.7 5.2 1 6.8 2.1 2.2 3.4 1.1 3.4-2.8 0-4.6-3.1-7.4-4.4-4z"/>
		<path class="s0" d="m336.2 61.7c-2.1 0.8-0.2 2.3 2.9 2.3 1.7 0 2.8-0.4 2.5-0.9-0.7-1.1-3.7-1.9-5.4-1.4z"/>
		<path class="s0" d="m373.5 63.5c-2.7 2.6-3.3 5.5-1.2 5.5 1.9 0 5.7-4.3 5.7-6.3 0-2.4-1.7-2.1-4.5 0.8z"/>
		<path class="s0" d="m385 64c-2.7 2.7-2.7 5.5 0 4 1.8-0.9 4-4 4-5.4 0-1.3-2.1-0.5-4 1.4z"/>
		<path class="s0" d="m450 62.7c-2.3 0.9-6 4.5-6 6 0 2.3 6.6 1.6 9.6-1 4.3-3.7 1.9-7-3.6-5z"/>
		<path class="s0" d="m485.2 63.2c-1.5 1.5-1.6 4.8-0.2 4.8 0.6 0 1.9-0.9 3-2 1.1-1.1 2-2.5 2-3 0-1.4-3.3-1.3-4.8 0.2z"/>
		<path class="s0" d="m414 63.7c-2 0.7-5 3.4-5 4.5 0 1.2 3.8 1 6.3-0.3 5.1-2.7 4-6.1-1.3-4.2z"/>
		<path class="s0" d="m323.1 66.9c-1 2.2-1 3.4-0.1 5.1 1.7 3.2 4.2 0.7 3.8-3.8-0.4-4.5-2.2-5.1-3.7-1.3z"/>
		<path class="s0" d="m305 66.5c1.3 1.6 6 2.1 6 0.6 0-1.1-2.5-2.1-5.2-2.1-1.7 0-1.8 0.3-0.8 1.5z"/>
		<path class="s0" d="m392 66.5c1.3 1.6 6 2.1 6 0.6 0-1.1-2.5-2.1-5.2-2.1-1.7 0-1.8 0.3-0.8 1.5z"/>
		<path class="s0" d="m342 68.5c0.7 0.8 2.4 1.5 3.7 1.5 2.2 0 2.4-0.2 1.3-1.5-0.7-0.8-2.4-1.5-3.7-1.5-2.2 0-2.4 0.2-1.3 1.5z"/>
		<path class="s0" d="m355.5 68.9c-0.3 0.5-0.1 1.2 0.5 1.6 0.5 0.3 1-0.1 1-0.9 0-1.8-0.6-2.1-1.5-0.7z"/>
		<path class="s0" d="m431 69c-3.5 2.3 4.2 4.1 8.2 1.9 1.7-0.9 1.8-1.3 0.7-2-1.9-1.2-7-1.1-8.9 0.1z"/>
		<path class="s0" d="m331.2 70.2c-1.4 1.4-1.6 7.4-0.3 8.3 1.3 0.7 3.1-2.7 3.1-5.9 0-2.9-1.2-4-2.8-2.4z"/>
		<path class="s0" d="m386.5 72.5c-3.9 3.8-3.1 6 1.2 3 2.2-1.5 3.8-5.5 2.2-5.5-0.6 0-2.1 1.1-3.4 2.5z"/>
		<path class="s0" d="m458.7 71.7c-0.4 0.3-0.7 1.9-0.7 3.5 0 3.5 2.3 3.4 2.8-0.1 0.4-2.5-1-4.6-2.1-3.4z"/>
		<path class="s0" d="m481.2 73c-1.2 1.2-2.2 3.2-2.2 4.5 0 2 0.5 2.5 2.5 2.5 1.4 0 3.4-0.9 4.5-2 1.1-1.1 2-3.1 2-4.5 0-3.2-3.6-3.4-6.8-0.5z"/>
		<path class="s0" d="m278 74.5c0 3 3.2 6.5 6 6.5 2.6 0 2.8-5 0.2-7.3-2.9-2.7-6.2-2.2-6.2 0.8z"/>
		<path class="s0" d="m306 73.4c0 1.6 2.1 2.6 5.5 2.6 3.2 0 4-1.6 1.6-2.9-2.8-1.6-7.1-1.4-7.1 0.3z"/>
		<path class="s0" d="m357.1 73.6c0 1.1 0.3 1.4 0.6 0.6 0.3-0.7 0.2-1.6-0.1-1.9-0.3-0.4-0.6 0.2-0.5 1.3z"/>
		<path class="s0" d="m408.5 73.9c-0.7 2.3 1.1 6.4 2.6 5.6 1.4-0.9 1.1-5.1-0.5-6.4-1.1-1-1.6-0.8-2.1 0.8z"/>
		<path class="s0" d="m465.7 75.1c-2.7 2.8-2.9 3.2-1.3 4.1 2.5 1.4 7 0.1 9.7-2.8 2-2.1 2.1-2.7 0.9-3.4-2.8-1.8-6.1-1-9.3 2.1z"/>
		<path class="s0" d="m346.5 74c0.3 0.5 2 1 3.6 1 1.8 0 2.8-0.4 2.4-1-0.3-0.6-2-1-3.6-1-1.8 0-2.8 0.4-2.4 1z"/>
		<path class="s0" d="m372.4 75.4c-0.4 1.7 0 3.5 1.2 5.3l1.7 2.7 1-2.2c1.2-2.6 0-7.3-2-7.9-0.7-0.3-1.5 0.7-1.9 2.1z"/>
		<path class="s0" d="m444 74.5c-1.1 1.3-0.8 1.5 1.8 1.5 1.6 0 3.5-0.7 4.2-1.5 1.1-1.3 0.8-1.5-1.8-1.5-1.6 0-3.5 0.7-4.2 1.5z"/>
		<path class="s0" d="m491.9 74.9c-2 1.8-2.2 2.2-0.9 3 1.7 1.2 5.5-0.9 5.5-2.9 0-2.2-2.1-2.2-4.6-0.1z"/>
		<path class="s0" d="m338.2 75.2c-1.7 1.7-1.5 6.3 0.4 7.9 1.3 1 1.7 1 2.5-0.2 2.3-3.7-0.2-10.4-2.9-7.7z"/>
		<path fill-rule="evenodd" class="s0" d="m403.7 75.3c0.2 0.3-1.2 4.8-3.1 10.1-1.9 5.3-3.1 9.6-2.7 9.6 0.5 0 4.8-3.7 9.7-8.2l8.9-8.1-10.2 10.2c-10 10.1-10.2 10.4-11.8 17.3-2.3 10.2-4.5 25.5-4.5 31.5 0 2.8 0.7 8.5 1.5 12.5 2.8 13.5 1.8 12.8 8.8 6.2l6.2-5.9-0.4-20 0.9 7.9c0.5 4.4 1.3 8.3 1.8 8.8 0.5 0.5 4.1-1.1 8.6-4 9-5.7 12.7-10.6 18-23.3 2.7-6.7 3.2-8.8 2.5-11.3-0.5-1.7-0.9-3.8-0.8-4.6 0-0.8 0.5 0.1 1.1 2l1 3.5 3.4-6.8c1.9-3.7 3.7-6.7 3.9-6.7 0.3 0-0.4 1.9-1.6 4.2-1.2 2.4-3.9 8.9-6.1 14.6-2.1 5.7-5 12.6-6.4 15.4-1.4 2.7-2.4 5.2-2.2 5.4 0.4 0.4 43.2-16.3 49-19.1 3.1-1.5 3.2-1.5 1.3 0.1-3.1 2.6-14.9 7.8-31 13.9-10.1 3.8-23.5 10.4-23.5 11.6 0 0.3 2.5 1.2 5.7 1.9 3.1 0.8 5.2 1.5 4.6 1.7-0.5 0.2-3.6-0.3-6.9-1l-5.9-1.4-5.9 4.6c-6.9 5.4-15 14.1-17.3 18.4-1.7 3.4-1.9 11.5-0.3 13.1 0.6 0.6 1.7 0.3 3.2-1.2 1.3-1.1 4.8-3.2 7.8-4.5 3-1.4 6.6-3.7 8-5.2 1.4-1.5 3.7-3.3 5.3-4.1 1.5-0.8 2.7-2.2 2.7-3.2 0.1-0.9 0.7-2.8 1.4-4.1l1.4-2.5 0.6 3.1c0.6 2.4 1.1 3 2.7 2.6 1-0.3 1.9-1.3 1.9-2.2 0.1-1.8 2.3-5.1 3.5-5.1 0.4 0 0.5 1.2 0.3 2.8l-0.4 2.7 7.2 0.1c7.2 0.1 7.2 0.1 6.1-2.3-0.5-1.3-0.8-2.6-0.4-2.9 1.2-1.3 4.9 1 6.1 3.7 1.2 2.9 11.3 10.2 12.8 9.3 0.5-0.3 0.8 0 0.8 0.6 0 0.6 1.1 2.6 2.5 4.4 7.8 10.3 9.2 23.6 3.6 35q-9.3 18.9-32.1 18.9c-11.4 0-18.6-2.7-25.5-9.7-2.8-2.8-5.8-6.8-6.8-8.8-3.4-7.3-4.2-16.6-2-24.3 0.5-1.8 0.4-1.8-1.1-0.6-6.5 5.4-8.4 20.8-4.6 38.3 2.8 13.3 3.1 13.8 8.1 13.8 2.2 0 7 0.7 10.7 1.5 3.7 0.8 7.8 1.6 9.2 1.8 1.4 0.2 0.3 0.5-2.5 0.6l-5 0.1 2.5 2c1.4 1.1 4.4 2.5 6.8 3.1 2.3 0.6 4.5 1.5 4.8 2 0.3 0.5 4.9 0.9 10.2 1 10.6 0 18.3 1 16.6 2.1-0.6 0.4-2.6 0.3-4.5-0.2-3.5-1-10.5-1.3-8-0.3 1.6 0.6 5.8 4.9 7.1 7.3 0.6 1 3.1 1.7 7.2 2.1l6.3 0.6-6.3 0.1c-6.2 0.2-6.3 0.1-10.6-4.3-2.5-2.5-5.2-4.6-6.3-4.7-2.8-0.2-7.3-0.7-12.5-1.4-5.1-0.6-5.4-0.4-3.7 2.8 1.5 2.7 8.3 5.6 17.6 7.4 4.3 0.8 8.6 2.3 9.8 3.3 1.1 1 3.4 3 5 4.6l3 2.8-3.2-2.2c-1.8-1.2-4.9-2.2-7.5-2.3l-4.3-0.1 3.9-0.4c3.6-0.4 3.7-0.5 1.9-1.8-1.1-0.8-6.2-2.3-11.3-3.4-9.9-2.2-15.1-4.8-16.7-8.3-0.8-1.8-2.3-2.4-8-3.4-4.4-0.7-8.5-2.1-10.9-3.8-4.6-3.1-6.4-3.3-6.4-0.7 0 3.5 12.9 12.1 18.2 12.1 1.3 0 4 0.9 6.1 2 2 1.1 4.7 2 6 2 1.3 0 3.8 1.1 5.7 2.5 1.9 1.4 4.8 2.6 6.4 2.7 2.3 0.1 2 0.3-1.4 0.7l-4.5 0.6 3 1.7c3.3 1.9 2 2.4-1.8 0.7-1.4-0.6-3-2.2-3.6-3.5-0.6-1.4-2.3-2.9-3.7-3.4-3.1-1.2-8.9-0.3-10.4 1.6-1.8 2.1 1.8 7.2 5.7 8.3 1.8 0.5 4.5 1.9 5.9 3 1.7 1.3 4.1 2.1 6.6 2.1 3.5 0 10.8 2.3 10.8 3.3 0 0.3-1.7-0.1-3.7-0.9-2.1-0.7-5.4-1.3-7.4-1.4-3.3 0-3.5 0.2-3.9 3.7-0.1 2.1-0.3 6.5-0.3 9.7 0.1 4.6-0.1 5.6-0.9 4.2-0.7-1.2-0.8-4.7-0.4-8.9 0.6-7 0.6-7.1-2.6-10.4-1.7-1.8-4-3.3-5-3.3-1 0-3.1 1.8-4.7 4-1.5 2.1-3.1 3.6-3.5 3.3-1-1.1-0.7-1.9 1.9-4.9l2.5-2.9-2.2-0.3c-3.9-0.6-4.8-2-4.2-6.6 0.9-6-0.6-8.3-5.6-8.8-3.5-0.3-3.9-0.1-3.4 1.5 0.4 1.3-0.3 2.8-2.5 4.8-2.8 2.5-3 3-1.9 5.4 0.9 2 0.9 3.7-0.1 7.6-1.2 4.7-1.2 5.3 0.5 6.8 1.1 1 3.8 2.3 6.1 3 2.2 0.6 5.2 2 6.5 3.2l2.3 2-2.5-1.4c-1.4-0.8-4.1-1.8-6-2.2-1.9-0.4-5.2-1.9-7.4-3.3l-3.8-2.6-2.2 2.5c-1.1 1.5-2.7 3.5-3.3 4.5-0.8 1.1-0.6 0.2 0.2-2.1 0.9-2.1 2.9-5.1 4.5-6.5 5.5-4.6 4.4-11.2-2.2-14-2.3-1-2.3-1 0.4-0.7 3 0.2 8.8-3.6 8.8-5.9 0-2.5-7.2-10.4-9.5-10.4-3.6 0-5.9 2.3-4.9 5.1 0.4 1.3 0.8 2.6 0.7 2.9 0 0.3-0.3 1.9-0.6 3.7-0.5 2.5-0.2 3.3 1.1 3.6 1.3 0.4 1.1 0.5-0.5 0.6-2.2 0.1-2.2 0.2-0.5 3.1 1.9 3.3 1.1 5.7-2.7 7.6-2.1 1.1-2.1 1.1-0.1 2.9 1.1 1 2 2.3 2 2.9 0 0.6-0.5 0.3-1.1-0.6-1.8-3.2-4.6-4-7.8-2.4-1.6 0.9-3.1 2.1-3.4 2.8-0.4 1-0.6 1-0.6 0.1-0.1-0.7 1.3-2.2 2.9-3.5l3-2.2-2.7-2.8c-1.5-1.5-3.7-2.8-4.9-2.8-3.3 0-11.5 4-10.8 5.2 0.4 0.6-0.4 3-1.7 5.4l-2.3 4.3 2.2 4.6c2.5 5.1 2.7 7.1 1 8.1-0.6 0.4-0.8 0.3-0.5-0.2 0.3-0.6-0.3-2.9-1.4-5.3-2.2-5.1-2.3-7.7-0.4-11.1 2-3.5 1.8-6.1-0.5-6.7-1.1-0.3-1.7-0.9-1.4-1.4 0.3-0.5-1.1-0.9-3-0.9-2.5 0-3.8 0.6-4.6 1.9-1.4 2.6-1.3 3.8 0.2 2.3 0.7-0.7 1.7-1.2 2.2-1.2 0.6 0 0 0.7-1.2 1.6-1.2 0.8-2.2 2.2-2.2 3 0 0.8-0.3 1.3-0.7 1.2-1.1-0.3-8.8 3.8-10.7 5.7-0.9 0.9-1.6 3.1-1.6 4.8-0.1 2.8-0.2 3-1.1 1.3-1.7-2.9 0.3-6 6.5-10 3.1-2 5.6-3.9 5.6-4.4 0-0.5-2.8-0.7-6.2-0.5-7 0.3-6.8-0.2 0.5-1.2 3.8-0.5 5-1.1 6.2-3.4 0.8-1.6 2.6-3.2 4.1-3.5 1.5-0.4 4-1.8 5.6-3.1 2.2-1.9 3.5-2.3 6.5-1.8 3 0.5 3.5 0.4 3-0.9-0.3-0.9 0.1-2.6 1-3.8 2.4-3.5 0.3-4.5-9.3-4.5-8.8 0-8.5-0.2-6.7 4.2 0.5 1.3-4.3 3-5.4 1.9-0.4-0.3 0.1-0.6 1-0.6 2.2 0 2.1-1.3-0.2-3.4-2.1-1.9-4.4-1.4-7.9 1.8l-2.4 2.1 4.4 0.6 4.3 0.6-4.2 0.1c-3.6 0.2-4.5 0.6-5.8 3.2-1 2-2.6 3.3-4.5 3.7-1.7 0.3-3 0.7-3 0.9 0 2.3 2.4 5.4 4.2 5.5 2.2 0.1 2.2 0.1-0.2 0.8-1.7 0.5-2.7 1.6-3 3.6-0.4 2.1-0.8 2.6-1.4 1.7-0.4-0.7-0.5-2.4-0.2-3.8 0.9-3.3-1.3-9.2-3.6-10-0.9-0.3-2.7 0-3.9 0.6-1.5 0.8-1.9 0.9-1.5 0.1 0.5-0.7-0.3-1.2-2.1-1.2-1.5-0.1 0.4-0.5 4.3-0.9 3.9-0.4 8.5-1.5 10.3-2.4 3.3-1.8 9-7.4 9.1-9 0-1.4-6.2 0-12.1 2.8-4.4 2.1-5 2.2-3 0.6 1.3-1.1 3-2 3.9-2 2.1 0 0.4-1.6-2.3-2.3-1.1-0.3-0.5-0.5 1.5-0.5 8.9-0.1 17.9-1.6 22.5-3.7 2.8-1.3 7.8-3.4 11.3-4.6 7.4-2.6 7-4.5-0.6-2.9-2.8 0.7-6.2 1-7.4 0.8-2.1-0.4-2-0.5 0.7-1.2 1.7-0.4 5-1.5 7.5-2.4l4.5-1.7-4.4-0.3c-9.4-0.7-24.1 4.5-24.1 8.5 0 1.3-5.2 4-9 4.7l-3.5 0.6 4-1.5c7.6-3 10-8.3 3.2-7.1-2.5 0.5-2.7 0.4-1.2-0.3 1.1-0.5 3.1-1 4.5-1.1 1.4 0 5.2-1.2 8.5-2.6 3.6-1.5 9-2.7 13.3-3.1 6.7-0.6 7.5-0.9 10.1-4 6-7.3 9.6-23.5 8.9-40.7-0.3-8.8-0.9-12.1-2.6-15.7-3.2-6.6-7.4-9.4-14.2-9.4h-5.5l-0.3 5.7-0.3 5.8h13.1v9.9l-6.2 0.3-6.3 0.3-0.3 11c-0.3 14.4 0.5 16 7.6 16 5.1 0 5.2 0.1 6.7 3.8 2 5 2 5.3-1.5 6.7-4.7 2-15.9 0.9-19.8-1.8-5.4-3.9-6.3-7-6.9-22.3l-0.6-13.9h-2.6c-1.5 0-3.2 0.5-3.8 1.1-2.8 2.8-4.4-2.2-1.8-5.7 0.8-1 1.5-2.7 1.5-3.7 0-1.3 0.8-1.7 3.5-1.7 3.1 0 3.5-0.3 3.5-2.5 0-3 0-3-5.3-0.4l-4.2 2.1 3-2.6c2.7-2.2 2.8-2.5 1-2.6-1.4-0.1-0.9-0.6 1.5-1.4 1.9-0.7 3.6-2 3.8-2.9 0.2-1.1 1.3-1.7 2.8-1.7 1.4 0 3.5-0.5 4.7-1.2 1.2-0.7 5.1-1.9 8.6-2.8l6.3-1.6-4.3-2.9c-2.6-1.7-8.7-4-14.9-5.6-9.1-2.4-9.7-2.7-4.7-2.2 3.1 0.3 5.7 0.3 5.7 0 0-0.3-5.8-4.2-13-8.7-7.7-4.9-15.9-11-20.2-15.2-5-4.8-5.5-5.5-1.6-2.1 10.6 9.3 31.3 22.5 56.1 35.7 4.9 2.6 9.2 4.6 9.6 4.4 0.3-0.2-0.2-4.8-1.2-10.4l-1.9-10.1-5.7-2.3c-8.8-3.7-18.2-8.2-17.7-8.7 0.2-0.2 2.2 0.5 4.4 1.6 3.7 1.9 18.2 6.4 18.2 5.7 0-0.2-1.5-3.7-3.3-7.7-1.9-4.1-5-11.7-7-16.9l-3.7-9.6-6.7-3.3c-7.2-3.5-22.3-12.1-22.3-12.6 0-0.2 6.4 2.7 14.2 6.5 7.8 3.8 14.4 6.7 14.6 6.5 0.2-0.2-1-4.7-2.8-10-1.8-5.3-3-9.8-2.8-10.1 0.3-0.2 1 1.5 1.7 3.8 1.9 6.2 8.1 22.2 9 23.1 0.5 0.5 2.2-1.5 4-4.5 4-7 4-5.2-0.1 2.2l-3.1 5.7 5.6 10.4c3.1 5.7 6.2 11.3 7 12.4 1.4 1.9 1.6 1.8 2.2-2 1.3-7.7 5.8-23.1 11.8-39.8 3.3-9.2 6.1-16.6 6.4-16.4zm41.2 95.8c-7.4 0.1-6.9 0.5 3.2 2.4l7.4 1.4-7.2-0.6c-7.3-0.6-8.5 0-6 2.7 0.6 0.8 0 0.5-1.4-0.8-4-3.5-8.1-2.9-11.8 1.5-4.9 5.9-6.3 13.5-4.1 21.5 4.4 15.6 27.2 19.2 36.9 5.7 3.8-5.2 4.9-11.3 2.5-14-1.6-1.7-1.6-1.9 0-1.9 1.3 0 1.5-0.6 1-2.8-1.2-4.8-5.2-10-9.7-12.6-3.5-2.1-5.6-2.6-10.8-2.5zm-29.9 68.3c0 1 8.9 5.4 12.3 6 5.5 1 4.7-1-1.5-3.9-4.6-2.1-10.8-3.3-10.8-2.1zm-27.6 3.6c-2.8 0-4.5 0.9-8.2 4.4l-4.7 4.4 2.8 1.3c2.3 1 3.6 1 8.1-0.4 5.7-1.8 8.2-4.9 6.4-8-0.6-1.1-2.2-1.7-4.4-1.7zm-25.1 5.5c-5.2 2.2-4.1 3.7 2 2.9 4.8-0.6 6.6-1.7 6.7-3.7 0-1.2-5.3-0.7-8.7 0.8zm21.1 7.4c-2.2 1.3-3.3 2.9-3.6 5.1-0.4 2.8 0 3.5 2.6 5.1 1.7 1 3.4 1.9 3.7 1.9 0.3 0 1.2 1.1 1.9 2.5 1.6 2.9 4.6 3 6.4 0.2 0.8-1.2 0.8-2.2-0.2-3.5-0.6-0.9-1.5-2.4-1.8-3.2-0.3-0.8-1-2.3-1.5-3.3-0.8-1.4-0.6-2.4 0.5-3.6 0.9-1 1.3-2.1 0.9-2.4-1.2-1.3-5.8-0.7-8.9 1.2zm44.1 0.1c-0.9 0-1.5 0.5-1.3 1.1 0.2 0.6 0.8 1 1.3 1 0.5 0 1.1-0.4 1.3-1 0.2-0.6-0.4-1.1-1.3-1.1zm-86.3 7c-0.5 0-1.5 0.7-2.2 1.5-0.7 0.8-0.8 1.5-0.2 1.5 0.5 0 1.5-0.7 2.2-1.5 0.7-0.8 0.8-1.5 0.2-1.5zm32.5 1c-4.8 0-7.3 2.1-5.8 4.8 0.9 1.7 1.6 1.9 4.1 1.2 4.2-1.2 5-1.9 5-4.1 0-1.5-0.7-1.9-3.3-1.9zm50.7 2.1c-0.7 1.2 1.3 2.9 3.5 2.9 1.1 0 1-0.5-0.4-2-2.1-2.3-2.2-2.3-3.1-0.9z"/>
		<path class="s0" d="m433.6 179.6c-1.7 1.6-2.2 5.4-0.8 5.4 1.4 0 4.2-3.5 4.2-5.3 0-2.1-1.4-2.2-3.4-0.1z"/>
		<path class="s0" d="m454.2 179.2c0.6 1.8 5.2 4 5.6 2.7 0.2-0.5-0.2-1.6-0.8-2.4-1.5-1.8-5.3-2-4.8-0.3z"/>
		<path class="s0" d="m439.6 183.6c-0.5 1.4 0.9 5.4 1.9 5.4 0.2 0 0.9-0.9 1.5-2.1 0.9-1.5 0.8-2.4-0.1-3.5-1.5-1.8-2.5-1.8-3.3 0.2z"/>
		<path class="s0" d="m447 187.8c0 1.1 0.8 2.7 1.9 3.6 1.5 1.4 1.9 1.5 2.4 0.3 0.6-1.6-1.8-5.7-3.4-5.7-0.5 0-0.9 0.8-0.9 1.8z"/>
		<path class="s0" d="m456 191.5c0 1.5 3.5 3.8 5.1 3.3 1.3-0.4-1.9-4.8-3.7-4.8-0.8 0-1.4 0.7-1.4 1.5z"/>
		<path class="s0" d="m427 75.7c-4.1 0.8-4.4 2-0.8 3.2 2.6 0.8 4.3 0.8 6.7 0l3.3-1.2-3.2-1.3c-1.8-0.8-3.3-1.3-3.4-1.3 0 0.1-1.2 0.4-2.6 0.6z"/>
		<path class="s0" d="m358.1 77.6c0 1.1 0.3 1.4 0.6 0.6 0.3-0.7 0.2-1.6-0.1-1.9-0.3-0.4-0.6 0.2-0.5 1.3z"/>
		<path class="s0" d="m453.2 77.2c-1.4 1.4-1.5 3.7-0.3 5.7 1.3 2.1 3.3-2.1 2.3-4.8-0.6-1.7-1-1.9-2-0.9z"/>
		<path class="s0" d="m290 79.9c0 1.2 2.9 4.1 4.1 4.1 1.3 0 1.1-2.4-0.3-3.8-1.4-1.4-3.8-1.6-3.8-0.3z"/>
		<path class="s0" d="m312.2 80.1c-1.3 0.5-2 1.3-1.7 1.9 0.8 1.3 5.1 1.3 7.7-0.1 1.7-0.9 1.8-1.3 0.7-2-1.7-1.1-3.7-1-6.7 0.2z"/>
		<path class="s0" d="m302 81.9c-1.3 2.5-1.3 5.1 0 5.1 1.2 0 3-3.3 3-5.4 0-2.2-1.7-2-3 0.3z"/>
		<path class="s0" d="m346.4 82.6c-0.7 2.8 0.9 7.4 2.6 7.4 0.6 0 1.5-1.1 2.2-2.5 0.9-1.9 0.8-2.9-0.6-5-2.1-3.2-3.4-3.2-4.2 0.1z"/>
		<path class="s0" d="m442.4 81.5c-1.8 1.4-1.7 1.5 2 1.3 2.2-0.2 4.1-0.9 4.4-1.6 0.5-1.7-4-1.5-6.4 0.3z"/>
		<path class="s0" d="m386 83.5c-1.3 1.4-2.1 2.7-1.9 3 1.1 1 7.9-1.7 8.9-3.5 0.9-1.8 0.7-2-1.8-2-1.7 0-3.8 1-5.2 2.5z"/>
		<path class="s0" d="m487 81.7c-1.6 0.6-4.9 4.3-5 5.5 0 1.4 7.5 0.8 9.8-0.8 2.5-1.7 3-4.4 0.8-4.4-0.8 0-2-0.2-2.8-0.4-0.7-0.3-2-0.2-2.8 0.1z"/>
		<path class="s0" d="m419.7 84.1c-2.6 1.5-1.1 2.9 3.1 2.9 3.7-0.1 7.7-2.1 6.5-3.3-1-1.1-7.6-0.8-9.6 0.4z"/>
		<path class="s0" d="m459.5 84c-0.8 1.2 1.7 2.3 4.1 1.8 1-0.1 1.9-0.9 2.2-1.6 0.5-1.5-5.4-1.7-6.3-0.2z"/>
		<path class="s0" d="m472.8 84.1c-1.9 1.1-2.5 6.9-0.8 6.9 1.7 0 5.1-4.1 4.8-5.7-0.4-2.1-1.8-2.5-4-1.2z"/>
		<path class="s0" d="m272 84.8c0 2 4.1 4.4 7.5 4.4 4.7 0 5.1-0.6 2.6-3.1-2.1-2.1-10.1-3.1-10.1-1.3z"/>
		<path class="s0" d="m318.2 86.1c-1.3 0.5-2 1.3-1.7 1.9 0.8 1.3 5.1 1.3 7.7-0.1 1.7-0.9 1.8-1.3 0.7-2-1.7-1.1-3.7-1-6.7 0.2z"/>
		<path class="s0" d="m369 87.5c0 2.5 3.1 6.5 5 6.5 1.8 0 1.1-4.9-1-7-2.7-2.7-4-2.5-4 0.5z"/>
		<path class="s0" d="m442.3 87c-3 1.2-2.9 3 0.1 3 2.5 0 5.1-2.2 3.9-3.3-0.8-0.9-1.2-0.8-4 0.3z"/>
		<path class="s0" d="m305.3 89.4c-2.6 3.3-3 6.6-0.8 6.6 2 0 3.7-3.5 3.3-6.8l-0.3-2.7z"/>
		<path class="s0" d="m355.4 88.4c-0.8 2.1 0.3 4.9 1.6 4.1 0.5-0.3 1-1.5 1-2.5 0-2.5-1.8-3.6-2.6-1.6z"/>
		<path class="s0" d="m497.7 88.8c-1.8 1.9-2.2 4.8-1.1 7.6 1.7 4.5 7-1.3 5.9-6.4q-1.2-5.1-4.8-1.2z"/>
		<path class="s0" d="m456.5 89c-0.3 0.5 0 1.3 0.9 1.6 2.1 0.8 6.1 0.1 6.1-1.1 0-1.4-6.2-1.9-7-0.5z"/>
		<path class="s0" d="m288 90c0 1.3 3.4 3 5.9 3 2.4 0 2.7-1 0.9-2.8-1.4-1.4-6.8-1.6-6.8-0.2z"/>
		<path class="s0" d="m410.7 91.6c-5.6 3-0.5 4.6 6.1 1.9 2.9-1.3 3.4-1.8 2.2-2.5-2.1-1.4-5.1-1.2-8.3 0.6z"/>
		<path class="s0" d="m487.7 91.8c-2.1 2.3-2.2 6.2-0.3 6.2 0.8 0 2.2-1 3-2.2 3.3-4.6 0.9-8-2.7-4z"/>
		<path class="s0" d="m326 92.5c-0.7 0.9-1 1.8-0.7 2.1 0.9 0.9 4.9-0.3 7.2-2 1.9-1.5 1.8-1.5-1.6-1.6-2.1 0-4.2 0.7-4.9 1.5z"/>
		<path class="s0" d="m480.5 92c-1 1.7 0.4 6.2 1.8 5.7 1.3-0.5 1.2-4.6-0.2-6-0.5-0.5-1.2-0.4-1.6 0.3z"/>
		<path class="s0" d="m278.2 93.8c0.4 1.8 5.4 5 6.3 4 1.2-1.2-1.4-4.6-4-5-2-0.4-2.5-0.2-2.3 1z"/>
		<path class="s0" d="m427 93c0 1.3 4.9 4.4 5.7 3.6 0.9-0.8-2.7-4.6-4.4-4.6-0.7 0-1.3 0.4-1.3 1z"/>
		<path class="s0" d="m384.2 93.7c-0.7 0.3-1.9 1.8-2.7 3.4-1.5 2.8-1.4 2.9 0.5 2.9 2.2 0 7-4.1 7-6 0-1-2.5-1.2-4.8-0.3z"/>
		<path class="s0" d="m473 93.8c-3.3 1-6 4.6-6 7.9 0 4 1.7 4.3 5.5 1 2.1-1.8 2.6-2.9 2.3-5.8-0.2-2.6-0.7-3.5-1.8-3.1z"/>
		<path class="s0" d="m452.5 95c-0.3 0.6 0 1.3 0.9 1.6 2.2 0.8 5.9 0.1 6.4-1.4 0.5-1.5-6.4-1.7-7.3-0.2z"/>
		<path class="s0" d="m268.5 96c-0.3 0.5 0.6 1.2 2 1.6 2.9 0.7 4.1 0.1 3-1.5-0.8-1.4-4.2-1.4-5-0.1z"/>
		<path class="s0" d="m308.4 97.4c-0.8 1.4-1.4 3.5-1.2 4.8l0.3 2.3 2.3-2.5c2.2-2.4 3-7 1.2-7-0.5 0-1.7 1.1-2.6 2.4z"/>
		<path class="s0" d="m333 98.3l-3.5 2.2 4.2 0.3c4.3 0.3 9.8-2.2 8.7-3.9-1-1.6-5.8-0.9-9.4 1.4z"/>
		<path class="s0" d="m289 97.9c0 1.4 4.1 4.1 6.2 4.1 2.3 0 3.2-1.8 1.8-3.5-1.4-1.6-8-2.1-8-0.6z"/>
		<path class="s0" d="m416.5 99.2c-3.3 1.8-5.5 5.1-5.5 8.5 0 4.2 1.3 4.2 5.6-0.1 4.8-4.8 4.7-10.9-0.1-8.4z"/>
		<path class="s0" d="m317 100.3c0 2 4.1 5.4 7.3 6.2 3.6 0.9 3.5-0.8-0.2-4.6-3-3-7.1-3.9-7.1-1.6z"/>
		<path class="s0" d="m426 100c0 1.7 4.7 6 6.5 6 2.3 0 1.8-1.8-1.1-4.5-2.8-2.6-5.4-3.3-5.4-1.5z"/>
		<path class="s0" d="m460.8 101.5c-0.9 2-0.9 2.8 0.1 3.8 0.9 0.9 1.4 0.9 2.1-0.3 1.3-2 1.3-4.7 0-5.5-0.5-0.3-1.5 0.5-2.2 2z"/>
		<path class="s0" d="m488.2 101.2c-1.8 1.8-1.6 5.9 0.3 5.2 1.8-0.7 3-4.3 1.8-5.5-0.5-0.5-1.4-0.4-2.1 0.3z"/>
		<path class="s0" d="m266 102.8c0 2.6 3.2 5.2 6.3 5.2 3.5 0 3.5-2.2 0.1-4.9-3.3-2.6-6.4-2.7-6.4-0.3z"/>
		<path class="s0" d="m281.5 101.9c-0.8 1.3 3.3 3.4 5.2 2.7 1.2-0.5 1.3-0.9 0.3-2.1-1.4-1.7-4.6-2-5.5-0.6z"/>
		<path class="s0" d="m344.1 103.1c-3.1 1.9-3.3 2.2-1.7 3.1 2 1.1 6.1 0.3 9.5-1.9 1.9-1.2 2.1-1.7 1-2.4-2.3-1.4-5.2-1-8.8 1.2z"/>
		<path class="s0" d="m454.7 102.8c-2.2 2.4-2.3 7.2-0.2 7.2 2.2 0 4-4.5 2.9-7.1-0.9-2-1-2-2.7-0.1z"/>
		<path class="s0" d="m498.7 102.7c-1.5 1.4-0.6 2.4 2 2.1 3.4-0.4 4.3-2.8 1.1-2.8-1.4 0-2.8 0.3-3.1 0.7z"/>
		<path class="s0" d="m311.6 104.5c-0.3 0.9-0.6 2.6-0.6 3.7 0 2.7 2.4 1.7 2.8-1.1 0.5-2.9-1.3-4.9-2.2-2.6z"/>
		<path class="s0" d="m333.4 105.4c-0.9 2.4 0.4 6.6 2.1 6.6 2 0 2-5.3 0-7-1.2-1-1.6-0.9-2.1 0.4z"/>
		<path class="s0" d="m446.7 104.7c-1.1 1-0.8 6.3 0.3 6.3 1.4 0 3.1-3.7 2.4-5.4q-1-2.6-2.7-0.9z"/>
		<path class="s0" d="m291 105.8c0 1.9 3.8 4.2 6.8 4.2 3.6 0 4-1 1.4-3.3-1.9-1.7-8.2-2.4-8.2-0.9z"/>
		<path class="s0" d="m356.6 106.9c-1 1.1-1.6 2.8-1.4 3.8 0.3 1.6 0.7 1.5 3.1-0.9 1.5-1.5 2.7-3.2 2.7-3.8 0-1.7-2.6-1.1-4.4 0.9z"/>
		<path class="s0" d="m480.7 106.7c-1.1 1-0.8 5.3 0.3 5.3 1.3 0 3.2-3.8 2.5-5-0.7-1.2-1.9-1.3-2.8-0.3z"/>
		<path class="s0" d="m403 108.8c0 2.2 3.6 5.9 4.7 4.8 0.9-0.9-1.8-5.8-3.4-6.4-0.8-0.2-1.3 0.5-1.3 1.6z"/>
		<path class="s0" d="m379.8 109.7c-1.9 2.1-2.4 6.3-0.8 6.3 1.4 0 3.2-3.8 2.8-6.2-0.3-2-0.3-2-2-0.1z"/>
		<path class="s0" d="m429 108.8c0 1.4 2.9 4.2 4.2 4.2 0.6 0 0.4-0.9-0.4-2.2-1.6-2.4-3.8-3.5-3.8-2z"/>
		<path class="s0" d="m467.5 109c0.3 0.5 1.2 1 2 1 0.8 0 1.7-0.5 2-1 0.4-0.6-0.5-1-2-1-1.5 0-2.4 0.4-2 1z"/>
		<path class="s0" d="m494.7 108.6c-1.6 1.6-0.5 2.5 2.6 2.2 1.7-0.2 3.1-0.8 3-1.3-0.3-1.2-4.6-1.9-5.6-0.9z"/>
		<path class="s0" d="m280 113.1c0 3.1 0.6 4.7 2.9 7 3.6 3.6 4.9 3.6 5.7 0.4 0.8-3.1-1.2-8.1-4-10-3.5-2.5-4.6-1.9-4.6 2.6z"/>
		<path class="s0" d="m321.1 109.9c-1.1 0.7-0.9 1.1 0.8 2 2.3 1.3 6.9 0.5 5.5-0.9-1.6-1.4-4.9-2-6.3-1.1z"/>
		<path class="s0" d="m341.8 111.8c-0.7 2.5 1 6.4 2.4 6 1.8-0.6 2.2-4.6 0.8-6.4-1.6-1.9-2.7-1.8-3.2 0.4z"/>
		<path class="s0" d="m463.6 111.7c-1.1 1.1 0.6 2.3 3 2.3 1.4 0 2.3-0.4 2-0.9-0.7-1.1-4.3-2.1-5-1.4z"/>
		<path class="s0" d="m262.2 114c0.4 3 4.4 5.9 9.1 6.7 3.2 0.5 3.7 0.3 3.7-1.5 0-3.7-3.2-6.4-8.4-6.9-4.5-0.6-4.8-0.5-4.4 1.7z"/>
		<path class="s0" d="m414.9 113.9c-2.7 2.2-2.1 3.6 1 2.6 2.6-0.8 4.9-4.5 2.7-4.5-0.7 0-2.4 0.9-3.7 1.9z"/>
		<path class="s0" d="m295.7 113.7c-2.4 0.6-1.6 2.7 1.2 3.1 3.2 0.5 7.6-0.7 6.5-1.8-1.2-1.2-5.5-1.9-7.7-1.3z"/>
		<path class="s0" d="m491 114c-1.3 0.9-1.3 1.1 0 2 0.8 0.5 2 1 2.5 1 1.4 0 4-1.8 3.5-2.3-1.3-1.2-4.7-1.5-6-0.7z"/>
		<path class="s0" d="m399.3 115.7c-0.7 1.8 1.5 6.4 3.3 7 2 0.7 2.5-2.7 0.9-5.8-1.7-3.3-3.2-3.7-4.2-1.2z"/>
		<path class="s0" d="m350 118.4c0 3.9 2.6 6.9 4.1 4.5 1.2-2 1.1-3.1-0.7-5.7-2.2-3.1-3.4-2.7-3.4 1.2z"/>
		<path class="s0" d="m456.6 116.5c1 0.8 3.3 1.4 4.9 1.4 2.9 0 2.9 0 1.1-1.4-1.1-0.8-3.3-1.5-5-1.5-2.8 0-2.9 0.1-1 1.5z"/>
		<path class="s0" d="m325.4 117.2c-1 1.5 2.4 3.8 5.8 3.8 3.4 0 3.6-1.3 0.6-3.4-2.6-1.9-5.4-2.1-6.4-0.4z"/>
		<path class="s0" d="m449.4 118.5c1.1 0.8 3.1 1.5 4.4 1.5 2.1 0 2.2-0.2 1.2-1.5-0.7-0.8-2.7-1.5-4.4-1.5-2.9 0.1-3 0.1-1.2 1.5z"/>
		<path class="s0" d="m485.5 119c-0.6 1 2.6 3 4.9 3 0.9 0 1.6-0.4 1.6-0.9 0-1.3-5.8-3.2-6.5-2.1z"/>
		<path class="s0" d="m361.2 120.2c-1.5 1.5-1.6 4.3-0.1 6.9 0.8 1.6 1.3 1.8 2.5 0.8 1.7-1.4 1.8-4.9 0.1-7.2-1-1.4-1.5-1.5-2.5-0.5z"/>
		<path class="s0" d="m413.2 120.2c-1.7 1.7-1.5 2.8 0.6 2.8 1.1 0 2.7-0.9 3.7-2 1.8-1.9 1.7-2-0.6-2-1.4 0-3 0.5-3.7 1.2z"/>
		<path class="s0" d="m299.1 120.9c-1.1 0.7-1 1.1 0.7 2 2.5 1.4 6.2 1.4 8.2 0.1 1.3-0.9 1.3-1.1 0-2-1.9-1.2-7-1.3-8.9-0.1z"/>
		<path class="s0" d="m480.4 123.9c1.1 1.1 3.1 2.1 4.5 2.1 2.2 0 2.3-0.2 1.1-1.4-0.8-0.8-2.8-1.8-4.5-2.2l-3-0.7z"/>
		<path class="s0" d="m291.7 124.2c-0.6 1.8 1.1 4.8 2.8 4.8 2.1 0 1.9-2.4-0.4-4.4-1.5-1.3-2-1.4-2.4-0.4z"/>
		<path class="s0" d="m333.5 125c-1.1 1.8 4.2 4.2 7.7 3.5l3.2-0.7-2.3-1.9c-2.5-2-7.6-2.6-8.6-0.9z"/>
		<path class="s0" d="m396 125.9c0 2.7 4.4 7.6 5.9 6.7 2.2-1.4-1.5-8.6-4.6-8.6-0.7 0-1.3 0.9-1.3 1.9z"/>
		<path class="s0" d="m494.3 125.1c-2.5 0.9-3.2 3.9-0.9 3.9 1.6 0 3.9-2.6 3.4-3.8-0.2-0.6-1.3-0.6-2.5-0.1z"/>
		<path class="s0" d="m503.8 125.1c-1 0.5-1.8 2.1-1.8 3.4 0 2.2 0.4 2.5 3.8 2.5 4.1 0 7.2-2.3 7.2-5.3 0-1.3-0.9-1.7-3.7-1.7-2.1 0-4.6 0.5-5.5 1.1z"/>
		<path class="s0" d="m265.8 125.6c-4.9 1.5 1.2 5.6 8.2 5.6 2.7-0.1 5.7-0.5 6.5-1 1.4-0.7 1.3-1.1-0.5-2.7-2-1.8-10.5-3-14.2-1.9z"/>
		<path class="s0" d="m412.3 127.6c-2.9 2.9-2.5 3.9 1.1 3 2.6-0.6 5.6-3.1 5.6-4.7 0-1.8-4.2-0.8-6.7 1.7z"/>
		<path class="s0" d="m299 128.4c0 2.2 2.6 4.3 3.8 3.1 0.8-0.8-1.6-5.5-2.8-5.5-0.5 0-1 1.1-1 2.4z"/>
		<path class="s0" d="m307.8 126.7c-1 0.3-1.8 0.8-1.8 1.3 0 2.5 7.6 4.9 10.4 3.3 1.5-0.8 1.5-1.1-0.1-2.5-2.1-1.8-6-2.7-8.5-2.1z"/>
		<path class="s0" d="m342.7 131.7c-1.2 1.2 1.5 3.3 4.3 3.3 4.5 0 6.3-1 4.9-2.6-1.2-1.4-8-2-9.2-0.7z"/>
		<path class="s0" d="m468 133c0 1.2 3.3 3 5.4 3 2.4 0 1.9-1.5-0.9-2.8-3.1-1.5-4.5-1.5-4.5-0.2z"/>
		<path class="s0" d="m282.3 133.7c-2 0.7-1.5 2.3 0.6 2.3 2.8 0 5.2-1.1 4.5-2.1-0.6-1-3.1-1.1-5.1-0.2z"/>
		<path class="s0" d="m412.6 134.9c-1.1 1.2-1.3 2.1-0.7 2.5 1.6 1 5.8-0.4 7.7-2.5 1.7-1.8 1.6-1.9-1.8-1.9-2.2 0-4.1 0.7-5.2 1.9z"/>
		<path class="s0" d="m490.6 133.9c-0.7 1.1 1.7 2.1 5 2.1 3 0 3.1-1.6 0.2-2.4-3.2-0.8-4.6-0.7-5.2 0.3z"/>
		<path class="s0" d="m266.2 135.6c-4.1 1.7-5 3.4-1.7 3.4 2.5 0 9.5-2.5 9.5-3.3 0-1.2-5.2-1.3-7.8-0.1z"/>
		<path class="s0" d="m320.3 134.7c-0.7 0.2-1.3 0.9-1.3 1.4 0 1.2 5.7 1.2 6.5-0.1 0.3-0.6 0.2-1-0.4-1-0.5 0-1.5-0.2-2.3-0.4-0.7-0.3-1.9-0.2-2.5 0.1z"/>
		<path class="s0" d="m480 135.4c0.8 0.8 2.9 1.8 4.5 2.1l3 0.6-2.4-2c-2.8-2.5-7.5-3.1-5.1-0.7z"/>
		<path class="s0" d="m396 137.1c0 2.8 1.7 5.6 4 6.9 1.8 1 2 0.7 2-1.9 0-1.8-0.9-3.8-2.2-5.1-2.8-2.5-3.8-2.5-3.8 0.1z"/>
		<path class="s0" d="m289.3 137.2c-2.8 1.3-2.9 2.4-0.5 3 2.3 0.6 8.7-1.4 8.7-2.7 0-1.4-5.6-1.6-8.2-0.3z"/>
		<path class="s0" d="m353.2 137.1c-1.3 0.5-2 1.3-1.7 1.9 0.8 1.3 5.1 1.3 7.7-0.1 1.7-0.9 1.8-1.3 0.7-2-1.7-1.1-3.7-1-6.7 0.2z"/>
		<path class="s0" d="m452 137.7c-4.5 1.7-6.9 7.3-3.1 7.3 2.6 0 7.1-3.8 7.1-6.1 0-1.9-1.1-2.2-4-1.2z"/>
		<path class="s0" d="m502.2 138.2c-1.3 1.3-1.6 4.1-0.6 5.1 1.4 1.3 3.4-0.7 3.4-3.4 0-3.1-0.9-3.6-2.8-1.7z"/>
		<path class="s0" d="m510.2 139.6c-3.2 2.2-2.8 4.4 0.8 4.4 2.8 0 5-2.2 5-4.9 0-1.6-3.2-1.3-5.8 0.5z"/>
		<path class="s0" d="m268.1 142.1c-2.7 1.6-3.1 2.3-2 3 3.5 2.2 15.9-0.1 15.9-3 0-2.8-9.4-2.8-13.9 0z"/>
		<path class="s0" d="m299 141c-1.2 0.8-1.2 1 0.3 1.6 0.9 0.3 2.9 0.3 4.4-0.1 2.1-0.5 2.4-0.8 1.2-1.6-1.8-1.1-4-1.1-5.9 0.1z"/>
		<path class="s0" d="m462 142c-1.1 1.1-2 2.9-2 3.9 0 1.7 0.4 1.8 3.2 1 3.4-0.9 4.8-2.4 4.8-5.2 0-2.4-3.5-2.2-6 0.3z"/>
		<path class="s0" d="m494.3 141.1c-3 1.1-3.1 4.9-0.3 4.9 2.2 0 3.4-1.9 2.8-4.3-0.2-1.1-0.9-1.2-2.5-0.6z"/>
		<path class="s0" d="m473.8 142.4c-2 1.4-2.5 5.6-0.7 5.6 2.5 0 4.9-2.2 4.9-4.5 0-2.8-1.6-3.1-4.2-1.1z"/>
		<path class="s0" d="m484.2 142.2c-2.1 1.1-4.1 5.3-2.9 6.4 0.3 0.3 1.8 0 3.4-0.8 1.9-0.9 2.9-2.2 3.1-4.1 0.4-2.9-0.1-3.1-3.6-1.5z"/>
		<path class="s0" d="m280.4 147.5c-1.9 1.4-1.9 1.4 0.2 1.5 1.1 0 2.9-0.7 4-1.5 1.9-1.4 1.9-1.4-0.2-1.5-1.1 0-2.9 0.7-4 1.5z"/>
		<path class="s0" d="m337.8 146.7c0.7 0.3 1.6 0.2 1.9-0.1 0.4-0.3-0.2-0.6-1.3-0.5-1.1 0-1.4 0.3-0.6 0.6z"/>
		<path class="s0" d="m438.8 146.7c0.7 0.3 1.6 0.2 1.9-0.1 0.4-0.3-0.2-0.6-1.3-0.5-1.1 0-1.4 0.3-0.6 0.6z"/>
		<path class="s0" d="m319.3 149.2c-1.3 1.4-2.3 3.7-2.3 5.3v3l2.6-2.6c1.8-1.8 2.5-3.4 2.2-5.3l-0.3-2.8z"/>
		<path class="s0" d="m442.8 147.7c0.7 0.3 1.6 0.2 1.9-0.1 0.4-0.3-0.2-0.6-1.3-0.5-1.1 0-1.4 0.3-0.6 0.6z"/>
		<path class="s0" d="m288.1 149.3c-1.4 0.6-2.6 1.8-2.9 2.6-0.7 2 4.7 0.5 7.3-2 1.9-1.9 1.9-1.9 0-1.9-1.1 0-3.1 0.6-4.4 1.3z"/>
		<path class="s0" d="m506.5 148.8c1.4 1.5 4 1.9 4.3 0.7 0.1-0.6-1-1.1-2.5-1.3q-2.9-0.3-1.8 0.6z"/>
		<path class="s0" d="m297.9 150.5c-1.4 0.7-3 2.5-3.7 3.9-1.1 2.5-1 2.5 1.6 1.5 3.4-1.3 6.2-3.8 6.2-5.6 0-1.6-0.8-1.6-4.1 0.2z"/>
		<path class="s0" d="m309 150.7c-3.2 2.2-4 3.3-4 6.1 0 2.2 0.1 2.2 3 0.7 1.6-0.8 3.2-2.6 3.6-4 1-3.8 0.2-4.7-2.6-2.8z"/>
		<path class="s0" d="m326.7 149.7c-1.1 1-0.8 6.3 0.3 6.3 1.4 0 3.1-3.7 2.4-5.4q-1-2.6-2.7-0.9z"/>
		<path class="s0" d="m333.5 153.1c-0.8 2.3-0.1 3.4 1.4 2.4 1.3-0.8 1.5-4.5 0.2-4.5-0.5 0-1.3 0.9-1.6 2.1z"/>
		<path class="s0" d="m499.2 152.2c0.6 1.6 5.5 3.4 6.5 2.4 1-1-2.6-3.6-5-3.6-1 0-1.7 0.5-1.5 1.2z"/>
		<path class="s0" d="m491 154c0 1.4 4.7 4.3 6.2 3.8 0.8-0.3 0.4-1.2-1-2.6-2.3-2.3-5.2-3-5.2-1.2z"/>
		<path class="s0" d="m462.5 156.2c0.8 2.7 4.1 5.8 6.2 5.8 2 0 0.8-3.9-1.9-6.3-2.9-2.5-5.1-2.2-4.3 0.5z"/>
		<path class="s0" d="m482 154.8c0 1.4 3.5 4.2 5.3 4.2 3.4 0 1.3-3.1-3-4.4-1.3-0.4-2.3-0.3-2.3 0.2z"/>
		<path class="s0" d="m349 155.9c0 2.1 1.3 4.1 2.6 4.1 1.7 0 1.8-2.2 0.2-3.8-1.4-1.4-2.8-1.6-2.8-0.3z"/>
		<path class="s0" d="m473 156.3c0 1.7 3.8 5.3 4.6 4.4 1-1-0.3-3.5-2.5-4.7-1.7-0.8-2.1-0.8-2.1 0.3z"/>
		<path fill-rule="evenodd" class="s0" d="m771 156h14v69h-13v-3.2c0-2.9-0.1-3-1.8-1.5-5.7 5.2-17.4 6.2-25.9 2.3-15.6-7.3-18-31.1-4.3-42.9 8.2-7 22-7.5 29.2-1 1.7 1.5 1.8 1.1 1.8-10.5zm-24.6 50.5c3.9 9.2 17.9 10 23.1 1.2 3.9-6.6 2-16.3-4-20.3-11.7-7.7-24.8 5.4-19.1 19.1z"/>
		<path class="s0" d="m341 157.8c0 1.6 3.2 5.2 4.6 5.2 2 0 1.8-1.6-0.6-4-2-2-4-2.6-4-1.2z"/>
		<path fill-rule="evenodd" class="s0" d="m13 160h20.3c11.1 0 21.9 0.5 24 1.1 12.3 3.4 16.5 17.4 7.7 26.1l-3.7 3.8 3.6 1.8c9.3 4.8 10.8 18.5 2.9 25.9-4.9 4.6-9.8 5.5-33 6.1l-21.8 0.4zm24.5 10h-9.5v17.3l10.6-0.6c8.4-0.4 11.2-0.9 13.3-2.4 4.8-3.6 4-10.6-1.4-12.9-2.2-0.9-7-1.4-13-1.4zm2.3 27h-11.8v17h11.3c8.7 0 12-0.4 14.6-1.8 6-3 6.1-10.9 0.1-13.9-1.6-0.8-6.8-1.3-14.2-1.3z"/>
		<path class="s0" d="m333 161.3c0 1.6 3.2 4.7 4.8 4.7 2 0 1.3-2.8-1-4.4-2.8-2-3.8-2-3.8-0.3z"/>
		<path class="s0" d="m324 162.8c0 2.3 3 5.2 5.3 5.2 2.4 0 2.1-1.7-0.8-4.5-2.9-3-4.5-3.2-4.5-0.7z"/>
		<path class="s0" d="m302 163c0 1.7 4.7 6 6.5 6 2.1 0 1.9-2.6-0.5-5-2.1-2.1-6-2.7-6-1z"/>
		<path class="s0" d="m314 163.9c0 2 3.5 5.1 5.7 5.1 2.2 0 1.4-2.7-1.3-4.9-3.3-2.6-4.4-2.6-4.4-0.2z"/>
		<path class="s0" d="m288 167.1c-2.4 1-2.4 1.1-0.6 2.5 2.4 1.7 6.6 1.8 10 0.2 5.9-2.6-3.1-5.2-9.4-2.7z"/>
		<path class="s0" d="m475.9 167.9c-1.3 1.1-2.1 2.3-1.7 2.7 1.2 1.1 5.8-1.3 5.8-3.1 0-2-1.3-1.9-4.1 0.4z"/>
		<path class="s0" d="m483.8 169.2l-2.3 2.3 2.3 0.3c2.4 0.4 7.2-2.2 7.2-3.8 0-1.9-5-1-7.2 1.2z"/>
		<path class="s0" d="m298.4 174.5c-1.8 1.4-1.8 1.4 0.8 1.5 3.2 0 5.8-0.9 5.8-2.1 0-1.4-4.4-1-6.6 0.6z"/>
		<path fill-rule="evenodd" class="s0" d="m119.5 176.8c8 4.1 13.4 12.8 13.5 21.4v4.8h-19c-17.8 0-19 0.1-19 1.9 0 2.3 4.2 6.8 7.5 8.1 4.5 1.7 12.7 1.2 16.4-1.1l3.3-2 2.5 2.3c4.3 4 4.7 5.6 2.1 7.8-5.8 4.8-20 6.5-28.9 3.5-22.5-7.7-22.4-40.7 0.1-48 6.1-2 16.4-1.4 21.5 1.3zm-23.1 13.4c-2.9 5.6-2.6 5.8 11.1 5.8 11.5 0 12.5-0.1 12.5-1.9 0-2.7-3.9-7.1-7.6-8.7-6.2-2.6-13.3-0.4-16 4.8z"/>
		<path class="s0" d="m307.3 175c-8 1.9-14.3 8.4-14.3 14.9 0 8.4 4.9 12.2 18.6 14.6 8.5 1.6 12.4 3.2 12.4 5.4 0 0.4-0.6 1.6-1.4 2.7-2.1 2.8-15.3 2.7-21.7-0.3l-4.6-2.1-2.1 5-2.1 5 4.7 2.1c6.5 2.9 21.1 3.6 28 1.2 9.5-3.1 14.2-11.7 10.6-19.2-2.5-4.9-6.1-6.9-17.2-9.2-12.2-2.5-14.7-4.6-10-8.7 1.2-1 1.8-1.3 1.4-0.7-1.1 1.9 4.4 1.6 6.5-0.3 1.1-1 2.5-1.3 3.8-0.9 1.8 0.5 1.9 1 1 2.7-1.5 2.8-0.6 3.2 2.4 0.8 3-2.4 4.7-2.6 4.7-0.5 0 1.9 1 1.9 3.8-0.1 1.4-1 2.2-2.5 2.1-4.2-0.1-1.5 0.1-3.4 0.5-4.3 1.4-3.2-18.1-6.1-27.1-3.9z"/>
		<path fill-rule="evenodd" class="s0" d="m543.7 187.3c2.1 4.1 2.9 16.3 1.4 21-3.4 10.1-12.5 16.7-23.3 16.7-6.5 0-10.3-1.2-13.5-4.2l-2.3-2.1v24.3h-14v-68h6.5c6.3 0 6.5 0.1 6.5 2.5 0 2.6 1.4 3.3 2.6 1.4 0.3-0.6 2.5-2 4.8-3 10.8-4.9 25.6 0.4 31.3 11.4zm-30.4-0.8c-5.2 2.2-7.5 6.8-7.1 14.3 0.4 5.4 0.8 6.7 3.5 9.3 3.9 3.9 10.4 5 15.2 2.5 9.7-5.1 9.5-22-0.4-26.2-4.3-1.7-7.1-1.7-11.2 0.1z"/>
		<path fill-rule="evenodd" class="s0" d="m658.6 183.5c10.8 14.3 4.2 35.8-12.4 40.5-6.7 1.8-16.2 1.2-21.7-1.4-9.8-4.6-14.6-12.3-14.6-23.3 0-11.1 6.3-20 16.9-23.7 10.6-3.6 25.8 0.1 31.8 7.9zm-31.8 6.1c-2.3 2.6-3.6 9-2.7 13.7 1.9 11.6 17.8 14.5 23.9 4.4 3.7-6 1.9-16.8-3.4-20.2-5.4-3.5-13.6-2.5-17.8 2.1z"/>
		<path fill-rule="evenodd" class="s0" d="m723.6 197.4l0.7 5.6h-19.7c-10.8 0-19.6 0.2-19.6 0.5 0 2 3.6 6.9 6.3 8.5 4.3 2.7 13 2.7 17.8 0.1l3.6-2 3.7 3.8c3.5 3.5 3.6 3.8 1.9 5.3-4.9 4.2-8.6 5.3-18.8 5.3-8.4 0-10.7-0.4-14.1-2.2-9.6-5.1-13.9-12.2-13.8-22.8 0.1-11.4 6.1-20 16.6-23.6 17.5-6 33.3 3.6 35.4 21.5zm-31.1-12c-3.8 1.7-6.1 4.3-7 7.8l-0.7 2.8h26.3l-0.7-2.3c-1.2-3.9-3.4-6.5-6.9-8.1-4-1.9-7-2-11-0.2z"/>
		<path fill-rule="evenodd" class="s0" d="m834.5 176.8c8 4.1 13.4 12.8 13.5 21.4v4.8h-19c-17.8 0-19 0.1-19 1.9 0 2.3 4.2 6.8 7.5 8.1 4.5 1.7 12.7 1.2 16.4-1.1l3.3-2 2.5 2.3c4.3 4 4.7 5.6 2.1 7.8-5.8 4.8-20 6.5-28.9 3.5-22.5-7.7-22.4-40.7 0.1-48 6.1-2 16.4-1.4 21.5 1.3zm-23.1 13.4c-2.9 5.6-2.6 5.8 11.1 5.8 11.5 0 12.5-0.1 12.5-1.9 0-2.7-3.9-7.1-7.6-8.7-6.2-2.6-13.3-0.4-16 4.8z"/>
		<path class="s0" d="m881.5 175.2c-1.6 0.6-4.2 1.9-5.7 2.9-3.4 2.5-3.8 2.4-3.8-0.6 0-2.4-0.2-2.5-6.5-2.5h-6.5v25 25h7 7v-15c0-11.5 0.4-15.8 1.5-18 3.9-7.5 16.3-8.1 20-1.1 1.2 2.3 1.5 6.5 1.5 18.6v15.5h7 7v-16.3c0-19.4-1.2-24.9-6.5-29.6-5.5-4.8-14.8-6.4-22-3.9z"/>
		<path class="s0" d="m146.3 200l9 25h6.6 6.6l6-16c3.3-8.8 6.2-15.6 6.6-15.2 0.3 0.4 3 7.6 6 15.9l5.4 15.3h6.6 6.7l4.1-11.3c2.2-6.1 6.3-17.3 9-24.7l4.9-13.5-5.6-0.3c-3-0.2-5.8 0.1-6.2 0.5-0.4 0.4-3.3 8.1-6.5 17.1-3.2 8.9-6.1 16-6.4 15.6-0.3-0.3-3.1-7.8-6.2-16.7l-5.6-16.2-6.1-0.3-6-0.3-2 5.3c-1.1 2.9-3.9 10.6-6.2 17.1-2.4 6.4-4.5 11.5-4.8 11.3-0.3-0.3-3-7.9-6.2-16.8l-5.6-16.3-6.6-0.3-6.5-0.3z"/>
		<path class="s0" d="m232 192.7c0 20.5 1.1 24.3 8.2 29 6.8 4.6 19.1 4.4 24.7-0.2 3.7-3.2 4.1-3.1 4.1 0.5v3h6.5 6.5v-25-25h-6.9-7l-0.3 16.1-0.3 16.1-3.3 2.9c-2.5 2.3-4.2 2.9-7.6 2.9-9.7 0-10.6-2-10.6-22.5v-15.5h-7-7z"/>
		<path class="s0" d="m480.2 175.8c-2.3 0.7 0.8 3.2 4 3.2 2.5 0 2.8-0.3 1.9-1.4-1.4-1.6-4-2.5-5.9-1.8z"/>
		<path class="s0" d="m550 175.3c0 0.2 4.6 11.4 10.3 24.8l10.3 24.4h7.3 7.3l10.3-24.5 10.3-24.5-5.5-0.3c-3.1-0.2-6.1-0.1-6.7 0.1-0.6 0.3-4.2 7.9-8 17.1-3.9 9.1-7.3 16.3-7.7 15.9-0.4-0.5-3.7-8-7.2-16.8l-6.5-16-7.1-0.3c-3.9-0.2-7.1-0.1-7.1 0.1z"/>
		<path class="s0" d="m320.7 244.7c1.8 0.2 5 0.2 7 0 2.1-0.2 0.7-0.4-3.2-0.4-3.8 0-5.5 0.2-3.8 0.4z"/>
		<path class="s0" d="m473.3 246.7c0.9 0.2 2.3 0.2 3 0 0.6-0.3-0.1-0.5-1.8-0.5-1.6 0-2.2 0.2-1.2 0.5z"/>
		<path class="s0" d="m467.8 249.7c0.7 0.3 1.6 0.2 1.9-0.1 0.4-0.3-0.2-0.6-1.3-0.5-1.1 0-1.4 0.3-0.6 0.6z"/>
		<path class="s0" d="m329.5 251c0.4 0.6 1.1 0.8 1.6 0.5 1.4-0.9 1.1-1.5-0.7-1.5-0.8 0-1.2 0.5-0.9 1z"/>
		<path class="s0" d="m324 252c0.8 0.5 2.4 0.9 3.5 0.9h2l-2-0.9c-1.1-0.5-2.7-0.9-3.5-0.9-1.3-0.1-1.3 0 0 0.9z"/>
		<path class="s0" d="m315.3 252.7c0.9 0.2 2.5 0.2 3.5 0 0.9-0.3 0.1-0.5-1.8-0.5-1.9 0-2.7 0.2-1.7 0.5z"/>
		<path class="s0" d="m481.7 260.5c1 1.3 2.5 2.7 3.3 3 0.8 0.4 0.2-0.8-1.4-2.4-3.6-3.7-4.3-4-1.9-0.6z"/>
		<path class="s0" d="m295 262.5c-0.6 0.8-1 1.9-0.8 2.6 0.2 0.6 0.9 0 1.6-1.5 1.3-2.9 1-3.3-0.8-1.1z"/>
		<path class="s0" d="m318.8 266.7c0.7 0.3 1.6 0.2 1.9-0.1 0.4-0.3-0.2-0.6-1.3-0.5-1.1 0-1.4 0.3-0.6 0.6z"/>
		<path class="s0" d="m471.5 268.8c0.4 0.8 1.1 2.6 1.5 4 0.7 2.2 0.8 2.3 0.9 0.6 0.1-1.1-0.6-2.9-1.5-4-0.8-1-1.2-1.3-0.9-0.6z"/>
		<path class="s0" d="m456.4 270.6c2.3 1.3 2.7 2.1 2.3 4.2-0.5 2.4-0.4 2.5 0.8 0.8 1.7-2.3 1.1-4-2.1-5.5-3.6-1.6-4.4-1.3-1 0.5z"/>
		<path class="s0" d="m322.5 273.6c-0.9 1.5-1.2 2.3-0.6 2 1.1-0.7 3.5-4.6 2.8-4.6-0.3 0-1.2 1.2-2.2 2.6z"/>
		<path class="s0" d="m395.4 291.2l-1.9 2.3 2.3-1.9c2.1-1.8 2.7-2.6 1.9-2.6-0.2 0-1.2 1-2.3 2.2z"/>
		<path class="s0" d="m424.2 292c0 1.4 0.2 1.9 0.5 1.2 0.2-0.6 0.2-1.8 0-2.5-0.3-0.6-0.5-0.1-0.5 1.3z"/>
	</g>
</svg>